<?xml version="1.0" encoding="UTF-8" standalone="no"?>
<svg
   xmlns:dc="http://purl.org/dc/elements/1.1/"
   xmlns:cc="http://creativecommons.org/ns#"
   xmlns:rdf="http://www.w3.org/1999/02/22-rdf-syntax-ns#"
   xmlns:svg="http://www.w3.org/2000/svg"
   xmlns="http://www.w3.org/2000/svg"
   xmlns:sodipodi="http://sodipodi.sourceforge.net/DTD/sodipodi-0.dtd"
   xmlns:inkscape="http://www.inkscape.org/namespaces/inkscape"
   version="1.1"
   id="svg10"
   xml:space="preserve"
   width="497.78812"
   height="316.06509"
   viewBox="0 0 497.78814 316.0651"
   sodipodi:docname="disc_transient.svg"
   inkscape:version="1.0.2 (e86c8708, 2021-01-15)"><metadata
     id="metadata16"><rdf:RDF><cc:Work
         rdf:about=""><dc:format>image/svg+xml</dc:format><dc:type
           rdf:resource="http://purl.org/dc/dcmitype/StillImage" /><dc:title></dc:title></cc:Work></rdf:RDF></metadata><defs
     id="defs14"><linearGradient
       x1="0"
       y1="0"
       x2="1"
       y2="0"
       gradientUnits="userSpaceOnUse"
       gradientTransform="matrix(101.8851,0,0,26.14167,222.0746,77.5077)"
       spreadMethod="pad"
       id="linearGradient222"><stop
         style="stop-opacity:1;stop-color:#231f20"
         offset="0"
         id="stop218" /><stop
         style="stop-opacity:1;stop-color:#656263"
         offset="1"
         id="stop220" /></linearGradient><linearGradient
       x1="0"
       y1="0"
       x2="1"
       y2="0"
       gradientUnits="userSpaceOnUse"
       gradientTransform="matrix(101.8851,0,0,38.25921,222.0746,77.5148)"
       spreadMethod="pad"
       id="linearGradient242"><stop
         style="stop-opacity:1;stop-color:#393536"
         offset="0"
         id="stop238" /><stop
         style="stop-opacity:1;stop-color:#7b7979"
         offset="1"
         id="stop240" /></linearGradient><radialGradient
       fx="0"
       fy="0"
       cx="0"
       cy="0"
       r="1.15"
       gradientUnits="userSpaceOnUse"
       gradientTransform="matrix(101.88482,0,0,101.88482,336.1856,101.6575)"
       spreadMethod="pad"
       id="radialGradient262"><stop
         style="stop-opacity:1;stop-color:#7b7979"
         offset="0"
         id="stop258" /><stop
         style="stop-opacity:1;stop-color:#393536"
         offset="1"
         id="stop260" /></radialGradient></defs><sodipodi:namedview
     pagecolor="#ffffff"
     bordercolor="#666666"
     borderopacity="1"
     objecttolerance="10"
     gridtolerance="10"
     guidetolerance="10"
     inkscape:pageopacity="0"
     inkscape:pageshadow="2"
     inkscape:window-width="1847"
     inkscape:window-height="1147"
     id="namedview12"
     showgrid="false"
     inkscape:zoom="0.93906071"
     inkscape:cx="549.69134"
     inkscape:cy="116.5118"
     inkscape:window-x="73"
     inkscape:window-y="25"
     inkscape:window-maximized="1"
     inkscape:current-layer="g18"
     fit-margin-top="0"
     fit-margin-left="0"
     fit-margin-right="0"
     fit-margin-bottom="0" /><g
     id="g18"
     inkscape:groupmode="layer"
     inkscape:label="singlepp0"
     transform="matrix(1.3333333,0,0,-1.3333333,-10.975285,323.84515)"><g
       id="g24"
       transform="scale(0.7)"><path
         d="M 78.7521,66.3097 H 525.4194"
         style="fill:none;stroke:#231f20;stroke-width:2.9999;stroke-linecap:butt;stroke-linejoin:round;stroke-miterlimit:10;stroke-dasharray:none;stroke-opacity:1"
         id="path26" /></g><g
       id="g28"
       transform="scale(0.7)"><path
         d="M 78.7521,345.477 H 525.4194"
         style="fill:none;stroke:#231f20;stroke-width:2.9999;stroke-linecap:butt;stroke-linejoin:round;stroke-miterlimit:10;stroke-dasharray:none;stroke-opacity:1"
         id="path30" /></g><g
       id="g32"
       transform="scale(0.7)"><path
         d="M 78.7521,66.3097 V 345.477"
         style="fill:none;stroke:#231f20;stroke-width:2.9999;stroke-linecap:butt;stroke-linejoin:round;stroke-miterlimit:10;stroke-dasharray:none;stroke-opacity:1"
         id="path34" /></g><g
       id="g36"
       transform="scale(0.7)"><path
         d="M 525.4194,66.3097 V 345.477"
         style="fill:none;stroke:#231f20;stroke-width:2.9999;stroke-linecap:butt;stroke-linejoin:round;stroke-miterlimit:10;stroke-dasharray:none;stroke-opacity:1"
         id="path38" /></g><g
       id="g40"
       transform="scale(0.7)"><path
         d="M 78.7521,66.3097 H 525.4194"
         style="fill:none;stroke:#231f20;stroke-width:2.9999;stroke-linecap:butt;stroke-linejoin:round;stroke-miterlimit:10;stroke-dasharray:none;stroke-opacity:1"
         id="path42" /></g><g
       id="g44"
       transform="scale(0.7)"><path
         d="M 78.7521,66.3097 V 345.477"
         style="fill:none;stroke:#231f20;stroke-width:2.9999;stroke-linecap:butt;stroke-linejoin:round;stroke-miterlimit:10;stroke-dasharray:none;stroke-opacity:1"
         id="path46" /></g><g
       id="g48"
       transform="matrix(0.7,0,0,0.7,9,0)"><path
         d="m 78.7521,66.3097 v 4.5"
         style="fill:none;stroke:#231f20;stroke-width:2.9999;stroke-linecap:butt;stroke-linejoin:round;stroke-miterlimit:10;stroke-dasharray:none;stroke-opacity:1"
         id="path50" /></g><g
       id="g52"
       transform="matrix(0.7,0,0,0.7,9,0)"><path
         d="M 78.7521,345.477 V 341.06"
         style="fill:none;stroke:#231f20;stroke-width:2.9999;stroke-linecap:butt;stroke-linejoin:round;stroke-miterlimit:10;stroke-dasharray:none;stroke-opacity:1"
         id="path54" /></g><text
       transform="scale(1,-1)"
       style="font-variant:normal;font-weight:normal;font-size:17.5px;font-family:Arial;-inkscape-font-specification:ArialMT;writing-mode:lr-tb;fill:#231f20;fill-opacity:1;fill-rule:nonzero;stroke:none"
       id="text58"
       x="59.262798"
       y="-28.146601"><tspan
         x="59.262798"
         y="-28.146601"
         id="tspan56">0</tspan></text><g
       id="g60"
       transform="matrix(0.7,0,0,0.7,9,0)"><path
         d="m 168.086,66.3097 v 4.5"
         style="fill:none;stroke:#231f20;stroke-width:2.9999;stroke-linecap:butt;stroke-linejoin:round;stroke-miterlimit:10;stroke-dasharray:none;stroke-opacity:1"
         id="path62" /></g><g
       id="g64"
       transform="matrix(0.7,0,0,0.7,9,0)"><path
         d="M 168.086,345.477 V 341.06"
         style="fill:none;stroke:#231f20;stroke-width:2.9999;stroke-linecap:butt;stroke-linejoin:round;stroke-miterlimit:10;stroke-dasharray:none;stroke-opacity:1"
         id="path66" /></g><text
       transform="scale(1,-1)"
       style="font-variant:normal;font-weight:normal;font-size:17.5px;font-family:Arial;-inkscape-font-specification:ArialMT;writing-mode:lr-tb;fill:#231f20;fill-opacity:1;fill-rule:nonzero;stroke:none"
       id="text70"
       x="112.0819"
       y="-28.146601"><tspan
         x="112.0819 121.8119 131.5419"
         y="-28.146601"
         sodipodi:role="line"
         id="tspan68">100</tspan></text><g
       id="g72"
       transform="matrix(0.7,0,0,0.7,9,0)"><path
         d="m 257.4193,66.3097 v 4.5"
         style="fill:none;stroke:#231f20;stroke-width:2.9999;stroke-linecap:butt;stroke-linejoin:round;stroke-miterlimit:10;stroke-dasharray:none;stroke-opacity:1"
         id="path74" /></g><g
       id="g76"
       transform="matrix(0.7,0,0,0.7,9,0)"><path
         d="M 257.4193,345.477 V 341.06"
         style="fill:none;stroke:#231f20;stroke-width:2.9999;stroke-linecap:butt;stroke-linejoin:round;stroke-miterlimit:10;stroke-dasharray:none;stroke-opacity:1"
         id="path78" /></g><text
       transform="scale(1,-1)"
       style="font-variant:normal;font-weight:normal;font-size:17.5px;font-family:Arial;-inkscape-font-specification:ArialMT;writing-mode:lr-tb;fill:#231f20;fill-opacity:1;fill-rule:nonzero;stroke:none"
       id="text82"
       x="174.6286"
       y="-28.146601"><tspan
         x="174.6286 184.3586 194.08859"
         y="-28.146601"
         sodipodi:role="line"
         id="tspan80">200</tspan></text><g
       id="g84"
       transform="matrix(0.7,0,0,0.7,9,0)"><path
         d="m 346.7529,66.3097 v 4.5"
         style="fill:none;stroke:#231f20;stroke-width:2.9999;stroke-linecap:butt;stroke-linejoin:round;stroke-miterlimit:10;stroke-dasharray:none;stroke-opacity:1"
         id="path86" /></g><g
       id="g88"
       transform="matrix(0.7,0,0,0.7,9,0)"><path
         d="M 346.7529,345.477 V 341.06"
         style="fill:none;stroke:#231f20;stroke-width:2.9999;stroke-linecap:butt;stroke-linejoin:round;stroke-miterlimit:10;stroke-dasharray:none;stroke-opacity:1"
         id="path90" /></g><text
       transform="scale(1,-1)"
       style="font-variant:normal;font-weight:normal;font-size:17.5px;font-family:Arial;-inkscape-font-specification:ArialMT;writing-mode:lr-tb;fill:#231f20;fill-opacity:1;fill-rule:nonzero;stroke:none"
       id="text94"
       x="237.1246"
       y="-28.146601"><tspan
         x="237.1246 246.8546 256.58459"
         y="-28.146601"
         sodipodi:role="line"
         id="tspan92">300</tspan></text><g
       id="g96"
       transform="matrix(0.7,0,0,0.7,9,0)"><path
         d="m 436.0859,66.3097 v 4.5"
         style="fill:none;stroke:#231f20;stroke-width:2.9999;stroke-linecap:butt;stroke-linejoin:round;stroke-miterlimit:10;stroke-dasharray:none;stroke-opacity:1"
         id="path98" /></g><g
       id="g100"
       transform="matrix(0.7,0,0,0.7,9,0)"><path
         d="M 436.0859,345.477 V 341.06"
         style="fill:none;stroke:#231f20;stroke-width:2.9999;stroke-linecap:butt;stroke-linejoin:round;stroke-miterlimit:10;stroke-dasharray:none;stroke-opacity:1"
         id="path102" /></g><text
       transform="scale(1,-1)"
       style="font-variant:normal;font-weight:normal;font-size:17.5px;font-family:Arial;-inkscape-font-specification:ArialMT;writing-mode:lr-tb;fill:#231f20;fill-opacity:1;fill-rule:nonzero;stroke:none"
       id="text106"
       x="299.67081"
       y="-28.146601"><tspan
         x="299.67081 309.40079 319.1308"
         y="-28.146601"
         sodipodi:role="line"
         id="tspan104">400</tspan></text><g
       id="g108"
       transform="scale(0.7)"><path
         d="m 525.4194,66.3097 v 4.5"
         style="fill:none;stroke:#231f20;stroke-width:2.9999;stroke-linecap:butt;stroke-linejoin:round;stroke-miterlimit:10;stroke-dasharray:none;stroke-opacity:1"
         id="path110" /></g><g
       id="g112"
       transform="scale(0.7)"><path
         d="M 525.4194,345.477 V 341.06"
         style="fill:none;stroke:#231f20;stroke-width:2.9999;stroke-linecap:butt;stroke-linejoin:round;stroke-miterlimit:10;stroke-dasharray:none;stroke-opacity:1"
         id="path114" /></g><g
       id="g120"
       transform="scale(0.7)"><path
         d="m 78.7521,120.0603 h 4.4173"
         style="fill:none;stroke:#231f20;stroke-width:2.9999;stroke-linecap:butt;stroke-linejoin:round;stroke-miterlimit:10;stroke-dasharray:none;stroke-opacity:1"
         id="path122" /></g><g
       id="g124"
       transform="scale(0.7)"><path
         d="m 525.4194,120.0603 h -4.5003"
         style="fill:none;stroke:#231f20;stroke-width:2.9999;stroke-linecap:butt;stroke-linejoin:round;stroke-miterlimit:10;stroke-dasharray:none;stroke-opacity:1"
         id="path126" /></g><text
       transform="scale(1,-1)"
       style="font-variant:normal;font-weight:normal;font-size:17.5px;font-family:Arial;-inkscape-font-specification:ArialMT;writing-mode:lr-tb;fill:#231f20;fill-opacity:1;fill-rule:nonzero;stroke:none"
       id="text130"
       x="33.126801"
       y="-77.589104"><tspan
         x="33.126801 38.9543"
         y="-77.589104"
         sodipodi:role="line"
         id="tspan128">-4</tspan></text><g
       id="g132"
       transform="scale(0.7)"><path
         d="m 78.7521,203.7268 h 4.4173"
         style="fill:none;stroke:#231f20;stroke-width:2.9999;stroke-linecap:butt;stroke-linejoin:round;stroke-miterlimit:10;stroke-dasharray:none;stroke-opacity:1"
         id="path134" /></g><g
       id="g136"
       transform="scale(0.7)"><path
         d="m 525.4194,203.7268 h -4.5003"
         style="fill:none;stroke:#231f20;stroke-width:2.9999;stroke-linecap:butt;stroke-linejoin:round;stroke-miterlimit:10;stroke-dasharray:none;stroke-opacity:1"
         id="path138" /></g><text
       transform="scale(1,-1)"
       style="font-variant:normal;font-weight:normal;font-size:17.5px;font-family:Arial;-inkscape-font-specification:ArialMT;writing-mode:lr-tb;fill:#231f20;fill-opacity:1;fill-rule:nonzero;stroke:none"
       id="text142"
       x="33.126801"
       y="-136.1537"><tspan
         x="33.126801 38.9543"
         y="-136.1537"
         sodipodi:role="line"
         id="tspan140">-2</tspan></text><g
       id="g144"
       transform="scale(0.7)"><path
         d="m 78.7521,287.3934 h 4.4173"
         style="fill:none;stroke:#231f20;stroke-width:2.9999;stroke-linecap:butt;stroke-linejoin:round;stroke-miterlimit:10;stroke-dasharray:none;stroke-opacity:1"
         id="path146" /></g><g
       id="g148"
       transform="scale(0.7)"><path
         d="m 525.4194,287.3934 h -4.5003"
         style="fill:none;stroke:#231f20;stroke-width:2.9999;stroke-linecap:butt;stroke-linejoin:round;stroke-miterlimit:10;stroke-dasharray:none;stroke-opacity:1"
         id="path150" /></g><text
       transform="scale(1,-1)"
       style="font-variant:normal;font-weight:normal;font-size:17.5px;font-family:Arial;-inkscape-font-specification:ArialMT;writing-mode:lr-tb;fill:#231f20;fill-opacity:1;fill-rule:nonzero;stroke:none"
       id="text154"
       x="43.408298"
       y="-194.7186"><tspan
         x="43.408298"
         y="-194.7186"
         id="tspan152">0</tspan></text><g
       id="g156"
       transform="scale(0.7)"><path
         d="M 78.7521,66.3097 H 525.4194"
         style="fill:none;stroke:#231f20;stroke-width:2.9999;stroke-linecap:butt;stroke-linejoin:round;stroke-miterlimit:10;stroke-dasharray:none;stroke-opacity:1"
         id="path158" /></g><g
       id="g160"
       transform="scale(0.7)"><path
         d="M 78.7521,345.477 H 525.4194"
         style="fill:none;stroke:#231f20;stroke-width:2.9999;stroke-linecap:butt;stroke-linejoin:round;stroke-miterlimit:10;stroke-dasharray:none;stroke-opacity:1"
         id="path162" /></g><g
       id="g164"
       transform="scale(0.7)"><path
         d="M 78.7521,66.3097 V 345.477"
         style="fill:none;stroke:#231f20;stroke-width:2.9999;stroke-linecap:butt;stroke-linejoin:round;stroke-miterlimit:10;stroke-dasharray:none;stroke-opacity:1"
         id="path166" /></g><g
       id="g168"
       transform="scale(0.7)"><path
         d="M 525.4194,66.3097 V 345.477"
         style="fill:none;stroke:#231f20;stroke-width:2.9999;stroke-linecap:butt;stroke-linejoin:round;stroke-miterlimit:10;stroke-dasharray:none;stroke-opacity:1"
         id="path170" /></g><g
       id="g172"
       transform="scale(0.7)"><path
         d="m 392.2529,285.4769 h 0.5 l 0.4167,-1.4171 h 0.4167 l 0.5003,-2.8329 0.4167,-0.8334 0.417,8.6664 0.5,-2.2496 0.4167,-2.2504 0.4167,-6.0832 0.5003,4.167 0.4167,2.8335 0.5,-2.5832 0.417,1.4164 0.4167,0.8334 0.4998,-0.2497 0.4172,-6.7499 0.4167,-3.9166 0.5,6.1668 0.4167,3.9166 0.417,-2.4993 0.4998,-5.5831 h 0.4167 l 0.5006,2.2495 0.4166,1.0834 0.4167,0.8334 0.5001,-9.7497 0.4167,10 0.4167,-4.4163 0.5003,-4.5 0.4169,5.5834 0.4167,-1.6665 0.5001,-3.333 0.4167,-1.6665 0.4167,-0.9167 0.5003,6.1667 0.4169,-2.2498 0.5001,-0.8334 0.4167,-8.6664 0.4167,10.9168 0.5003,-0.5 h 0.4167 l 0.4169,0.8334 0.5001,1.6668 0.4167,-8.1667 h 0.4167 l 0.5003,0.8334 0.4167,5.6668 0.5,0.2503 0.417,-3.9167 0.4167,3.3336 0.4997,-1.6665 0.4173,-3.333 0.4167,0.5834 0.5,3.0002 0.417,1.7504 0.4167,-3.6669 0.4997,9.8334 0.4173,-13.7498 0.4167,6.4165 0.5,6.4168 0.417,-4.7497 0.4997,3.6666 0.4167,-7.2496 0.4167,-2.5835 0.5006,-0.4998 0.4167,-2.2498 0.4167,10.6665 0.5,-9.8331 0.4167,8.9166 0.4167,-0.8334 0.5001,-1.0828 0.4172,-5.0836 0.5,6.7504 0.4167,-1.4171 0.4167,0.3337 0.5003,-1.7496 0.4167,5.6665 0.417,-4.7497 0.5,0.2503 0.4167,3.0832 0.4167,1.6668 0.5003,0.8334 0.4167,-6.1665 h 0.417 l 0.5,8.4166 0.4167,-2.2501 0.5004,-2.7496 0.4166,2.9999 0.4167,0.917 0.5001,-1.9999 0.4169,5.9168 0.4167,-2.5832 0.5004,-1.3332 0.4166,1.9163 h 0.4167 l 0.5001,-3.9164 0.4169,-1.9165 0.5004,9.7503 0.4167,-3.3332 0.4166,1.0834 0.5001,-0.5831 0.4167,3.4169 0.417,-3.4169 0.5003,-1.0828 0.4167,0.2497 0.4167,3.9172 0.5,-8.0833 0.4167,2.0001 0.4167,5.5834 0.5006,-4.2499 0.4167,4.4997 0.4994,-2.833 0.4173,-1.6667 0.4167,3.4174 0.5,-0.5836 0.4167,-2.4999 0.4173,-2.2499 0.4994,3.9167 0.4167,-6.9999 0.4173,5.8334 0.5,-4.4164 0.4167,6.6671 0.5,-0.4997 0.4167,-2.5835 0.4167,-0.2501 0.5003,-1.6662 0.417,-3.6666 0.4167,-5.5828 0.5,5.9162 0.4167,-4 0.4167,2.0004 0.5003,4.1669 0.417,-1.9167 0.4167,-2.4996 0.5,10.5837 0.4167,-11.4168 0.5003,0.25 0.4167,2.5001 0.417,3.0833 0.5,-0.8334 0.4167,0.2503 0.4167,5.0837 0.5003,-9.2501 0.4167,2.0002 0.417,1.9167 0.5,-5.9167 0.4167,2.2501 0.4998,5.6671 0.4172,2.5001 0.4167,-9 0.5001,5.5834 0.4169,-6.4168 0.4167,9 0.4998,-11.4993 0.4173,-0.8334 0.4166,4.7501 0.5001,-2.5002 0.4167,4.1669 0.4169,-2.7496 0.4998,3.9166 0.4167,-4.5002 0.5006,5 0.4167,-5.3334 0.4167,5.0839 0.5,-0.25 0.4167,-1.1664 0.4167,-4.5003 0.5003,2.8338 0.417,2.2498 0.4167,7.8339 0.5,-0.5837 0.4167,-12.5833 0.5003,1.6668 0.4167,3.0833 0.417,-2.7496 0.5,5.25 0.4167,-2.1662 0.4167,3.0002 0.5003,0.5833 0.4167,-0.8334 0.417,-4.7494 0.5,-3.0838 0.4167,1.417 0.4167,7.833 0.5003,5.5834 0.4167,-4.9995 0.5,-4.5003 0.417,-2.2498 0.4167,13.4166 0.4998,-1.6662 0.4172,-3.0835 0.4167,-3.0832 h 0.5 l 0.417,-1.4168 0.4167,5.6668 0.4998,0.8333 0.4172,-6.4998 0.5,3.6669 0.4167,-1.0834 0.417,-6.9993 0.4998,6.9999 0.4167,-2.5835 0.4167,-4.4164 0.5005,10.5837 0.4167,-7.2502 0.4167,0.584 0.5001,3.3329 0.4167,3.9167 0.4167,-2.4996 0.5003,-3.0833 0.4169,6.6666 0.5001,-8.0827 0.4167,-0.2501 0.4167,9.7501 0.5003,-5.5831 0.4167,-1.6662 0.4169,7.2499 0.5001,-3.3333 0.4167,-1.6659 0.4167,-1.6668 0.5003,1.3334 0.4167,-3.333 0.5,-0.2494 0.417,1.9162 0.4167,0.8334 0.5003,0.3336 0.4167,0.2503 h 0.4167 l 0.5,-4.1666 0.417,-2.5835 0.4167,7.8335 0.5003,-1.0831 0.4167,-5.8328 0.4167,5.8331 0.5,-1.6662 0.417,-3.3333 0.4997,1.9168 0.4167,-3.3332 0.4173,7.5002 0.5,-7.4997 0.4167,2.2499 0.417,-3.0833 0.4997,14.8332 0.4167,-12.0833 0.4173,6.5002 0.5,-1.9999 0.4167,-7.833 0.5,9.8334 0.4167,-4.833 0.4167,-4.417 0.5001,1.9168 0.4172,-1.0828 0.4167,0.5833 0.5,-0.5833 0.4167,0.8334 0.4167,5.8337 0.5001,-1.0835 0.4167,-0.5833 0.4172,1.4167 0.5,-4.5 0.4167,9 0.5001,-6.4165 0.4167,2.5002 0.4167,-3.6669 0.5003,1.167 0.4169,-1.1664 0.4167,3.0832 0.5001,-4.4997 0.4167,-3.0838 0.4167,6.167 0.5003,-0.25 0.4169,3.9166 0.5001,-6.1659 0.4167,1.0829 0.4167,-4.1664 0.5003,3.3335 0.4167,-1.0831 0.4169,8.0833 0.5001,-5.2498 0.4167,1.6668 0.4167,2.7499 0.5003,-3.9164 0.4167,-4.1663 0.4169,7.5835 0.5001,-3.9166 0.4167,-4.25 0.4997,8.4169 0.4173,-7.833 0.4167,2.4996 0.5,2.5002 h 0.417 l 0.4167,3.0832 0.4997,-1.6662 0.4173,-0.5831 0.4167,-1.3331 0.5,-2.0004 0.417,4.1669 0.4997,6.7502 0.0488,-0.7756"
         style="fill:none;stroke:#b8232b;stroke-width:2.5713;stroke-linecap:butt;stroke-linejoin:round;stroke-miterlimit:10;stroke-dasharray:none;stroke-opacity:1"
         id="path174" /></g><g
       id="g176"
       transform="scale(0.7)"><path
         d="m 258.7524,282.6434 0.4167,3.6669 0.4167,1.3334 0.5,-8.0836 0.4167,-1.9162 0.4167,4.4167 0.5,-4.4164 0.4167,-0.9167 0.4167,-1.0829 0.4998,5.9168 0.4167,-7.9169 0.5,-1.9165 0.4167,6.4168 0.4167,-3.583 0.5003,-3.4169 0.4167,2.5002 0.4167,-5.2498 0.5,-2.8335 0.4167,6.4168 0.4167,-5.5831 0.5,1.417 0.4167,-0.25 0.4998,-7.8333 0.4167,3.3336 0.4167,-8.6667 0.5,3.0836 0.4167,4.7503 0.4167,-1.6668 0.5003,-2.5832 0.4167,3.9166 0.4167,-7.4996 0.5,2.7499 0.4167,-6.6666 0.4167,9.5001 0.5,-8.6664 0.4167,4.75 0.4998,-3.3329 0.4167,-7.9166 0.4167,5.667 0.5003,0.4997 0.4167,-2.7496 0.4167,-1.1667 0.5,-4.4164 0.4167,3.0832 0.4167,3.9167 0.5,5.5834 0.4167,-8.6661 0.5,0.5 0.4167,5.6668 0.4167,-7.5836 0.5003,3.917 0.4167,1.6667 0.4167,3.9167 0.5003,-12.8333 0.4167,7.8332 0.4167,5.0001 0.4998,-0.8334 0.4172,7.8335 0.4167,-5.3334 0.5001,-3.583 0.4169,5.5834 0.4998,-2.0001 0.4167,5.3337 0.4172,-7.2502 0.5001,-5.3334 0.4167,12.5836 0.4169,-1.4165 0.4998,-1.9168 0.4167,5.3334 0.4172,0.25 0.5001,-4.1663 0.4167,5.25 0.5,-4.1664 0.4167,9.5001 0.4167,2.2504 0.5003,-2.2504 0.417,-1.0831 0.4167,6.1667 0.5,-6.1665 0.4167,6.4168 0.4167,-5.3331 0.5003,5.3331 0.417,0.8334 0.4167,3.0833 0.5,-10.3332 0.4167,12.3336 0.5003,-1.9999 0.4167,-0.25 0.417,4.1667 0.5,-9.2495 0.4167,9.2497 0.4167,-2.8332 0.5003,-1.9162 0.4167,1.0831 0.4167,-1.0831 0.5003,1.0834 0.4167,-0.4995 0.4997,-2.0001 0.4173,4.2503 0.4167,3.9166 0.5,-6.9999 0.4167,2.7505 0.417,-1.0834 0.4997,1.4167 0.4167,-5.6664 0.4173,5.6667 0.5,-2.5835 0.4167,1.1671 0.417,-1.4165 0.4997,3.3335 0.4167,-9.7503 0.5001,5.8337 0.4172,4.75 0.4167,-6.6662 h 0.5001 l 0.4166,0.8328 h 0.4167 l 0.5001,-1.6662 0.4172,-3.6666 0.4167,-0.8334 0.5001,3.9166 0.4166,-4.1663 0.5001,-1.1668 0.4167,-3.0832 0.4172,6.1665 0.5001,-1.9163 0.4167,-3.4166 0.4166,-2.7499 0.5001,5.2501 0.4167,-3.9161 0.4172,3.9167 0.5001,-5.0001 0.4167,0.5837 0.4167,0.2503 0.5,-0.5837 0.4167,-0.8334 0.5003,-1.0831 0.417,-0.5831 0.4167,-1.0828 0.5,0.8328 0.4167,0.8334 0.4167,-1.1662 0.5003,2.2496 0.4167,-2.7496 0.417,-1.4168 0.5,-2.4995 0.4167,0.8333 h 0.5003 l 0.4167,-0.5836 0.4167,-1.6662 0.5006,3.3335 0.4167,3.6664 0.4167,-1.1662 0.4994,-4.75 0.4173,0.5833 0.4167,11.7502 0.5,-3.6666 0.4173,-4.7494 0.4167,-3.3336 0.4994,15.0834 0.4173,-10.3331 0.5,1.417 0.4167,-2.2498 0.4173,4.9997 0.4994,-0.2497 0.4167,-1.6665 0.4173,0.25 0.5,2.5835 0.4167,-0.9164 0.4173,-8.333 0.4994,18.1667 0.4167,-6.7499 0.5004,-1.0834 0.4169,-2.2499 0.4167,6.7502 0.5001,-0.8334 0.4166,1.3331 0.4167,2.8338 0.5004,-0.8334 0.4169,3.9167 0.4167,-2.2499 0.5001,2.2499 0.4166,-3.9164 0.4167,-3.6666 0.5004,7.8333 0.4169,5.9167 0.5001,-5.3334 0.4167,0.8334 0.4167,-1.6662 h 0.5003 l 0.4167,6.1665 0.4167,-4.4997 0.5003,2.2496 0.4167,-3.333 0.4167,3.0835 0.4997,2.2499 0.4173,-7.833 0.5,2.9999 0.4167,0.3336 0.417,-1.4164 0.4997,-7.8336 0.4167,1.9168 0.4173,8.7506 0.5,4.1663 0.4167,-8.9164 0.417,2.7505 0.4997,-1.417 0.4167,7.3335 0.4173,-6.7499 0.5,-3.6666 0.4167,4.5 0.5,-3.6669 0.4167,5.3337 0.4167,-8.4167 0.5003,5.6671 0.417,-1.6665 0.4167,-3.0833 0.5,-0.3333 0.4167,1.417 0.4167,-0.8334 0.5003,1.9163 0.417,-7.2496 0.5,-0.8334 0.4167,6.1667 0.4167,-2.8335 0.5003,-2.2498 0.4167,1.1667 0.417,-6.7499 0.5,12.3333 0.4167,-0.2494 0.4167,-5.3337 0.5003,-1.1662 0.4167,3.0833 0.4167,-4.1667 0.5003,1.6668 0.4167,-4.9998 0.4998,-2.5832 0.4172,3.9167 0.4167,3.0832 0.5001,-6.6665 0.4167,8.4166 0.4169,-9 0.4998,-2.7496 0.4167,-1.7501 0.4172,7.0004 0.5001,9.5834 0.4167,-6.5001 0.5,-0.2498 h 0.4167 l 0.4167,-1.1667 0.5,5.0837 0.4173,-6.9996 0.4167,5.5834 0.5,1.1667 0.4167,-8.1666 0.4167,5.3337 0.5,-1.0834 0.4173,-6.7499 0.4167,5.0003 0.5,1.9999 0.4167,-5.3334 0.5,6.7504 0.417,-1.417 0.417,-1.1665 0.5,1.4165 0.4167,2.0004 0.4167,1.0831 0.5003,0.5837 0.4167,2.8338 0.417,-3.4169 0.5,-2.2499 0.4167,-0.8334 0.5003,7.3335 0.4167,-2.2498 0.4167,0.5 0.5,4.8337 0.417,-6.7502 0.4167,8.917 0.5003,4.2499 0.4167,-11.4993 0.4167,7.583 0.5,-3.3327 0.417,-1.7501 0.4167,2.0004 0.5003,3.6663 0.4167,0.8334 0.5,-1.7501 0.4167,-4.4164 0.4167,-2.5832 0.5006,11.8335 0.4167,-10.4162 0.4167,9.8329 0.4995,-1.1665 0.4172,-6.6662 0.4167,10.9165 0.5001,-3.6664 0.4172,-2.5001 0.4995,1.9171 0.4167,3.6663 0.4172,-1.9162"
         style="fill:none;stroke:#b8232b;stroke-width:2.5713;stroke-linecap:butt;stroke-linejoin:round;stroke-miterlimit:10;stroke-dasharray:none;stroke-opacity:1"
         id="path178" /></g><g
       id="g180"
       transform="scale(0.7)"><path
         d="m 125.1692,283.4768 0.4167,3.0832 0.5,-2.4999 0.4167,-7.3332 0.4167,-3.9161 0.5003,2.8333 0.4167,-8.6661 0.4167,-3.6669 0.4994,-0.2495 0.4167,2.7496 0.5003,-8.333 0.4167,-5.0833 0.4167,-1.4165 0.5001,0.3336 0.4167,-12.0832 0.4167,0.5831 0.5,2.5001 0.4167,-3.3327 0.4167,1.6662 0.5003,-3.3329 0.4167,-1.1668 0.4994,-8.9161 0.4167,1.6668 0.4167,-4.75 0.5003,-2.2502 0.4167,-0.2497 0.4167,2.7505 0.5001,0.8334 0.4167,-1.9168 0.4166,-5.5829 h 0.5001 l 0.4167,4.7501 0.4167,-6.7505 0.5003,8.4172 0.4167,-2.8338 0.4994,-3.9163 0.4167,-0.2498 0.4167,-3.9163 0.5003,5.8337 0.4167,-3.5836 0.4167,-3.0832 0.5001,10.9168 0.4166,-1.1668 0.4167,-6.4165 0.5001,4.167 0.4167,-1.9165 0.5003,12.3335 0.4167,-5.9167 h 0.4161 l 0.5,2.8335 0.4167,3.9166 0.4167,0.2503 0.5003,1.167 0.4167,6.6665 0.4167,-2.2501 0.5,3.4169 0.4167,-0.5834 0.4167,3.3336 0.5001,10.4164 0.4167,-2.8332 0.4997,9.25 0.4167,-11.2498 0.4167,3.6666 0.5,6.1667 0.4167,5.3331 0.4167,-4.4997 0.5003,6.1665 0.4167,-8.9161 0.4161,10.5832 0.5006,0.5836 0.4167,0.5837 0.5001,6.1665 0.4167,-5.0834 0.4164,2.2504 0.5,3.0833 0.4167,0.8333 0.4167,7.583 0.5,-3.9163 0.4167,1.3337 h 0.4167 l 0.5003,-1.0834 0.4161,2.0004 0.4167,2.7501 0.5004,-0.8333 0.4166,0.5833 0.5004,-3.0832 0.4164,4.5 0.4167,-3.4166 0.5,1.167 0.4167,2.5002 0.4167,-0.8334 0.5,1.4165 0.4167,-0.3334 0.4167,-4.7494 0.4997,-7.5836 0.4167,6.9999 0.5004,-2.7499 0.4166,-0.2494 0.4167,3.5832 0.5001,-7.5835 0.4167,1.7507 0.4167,-1.7501 h 0.5 l 0.4167,-0.4998 0.4167,1.4165 0.5,-4.8331 0.4167,1.4165 0.4167,-1.4165 0.4997,-7.2499 0.4167,-1.0831 0.5003,1.0837 0.4167,2.8332 0.4167,-2.8332 0.5001,-4.5 0.4167,-3.0835 0.4166,4.5 0.5001,-4.5 0.4167,0.5839 0.4167,1.9999 0.5003,-6.166 0.4167,-4.5002 0.4994,-0.2495 0.4167,2.1665 0.4167,-10.9162 0.5003,4.4997 0.4167,0.3334 0.4167,-6.7499 0.5001,-1.4167 0.4166,2.2501 0.4167,-0.5834 0.5001,2.5835 0.4167,-3.0832 0.4167,5.0003 0.5003,-7.8333 0.4167,2.5002 0.4994,-0.25 0.4167,-3.6664 0.4167,1.6668 0.5003,-1.3334 0.4167,1.0834 0.4167,1.6665 0.5001,-6.6662 0.4166,3.3335 0.4167,-1.167 0.5001,3.0835 0.4167,-0.2497 0.5003,0.2503 0.4167,-0.4998 0.4167,5.5831 0.4994,1.0832 0.4167,-2.7496 0.4167,10.3334 0.5003,-4.7495 0.4167,-3.0838 0.4167,6.7502 0.5,0.8333 0.4167,1.3335 0.4167,-0.5001 0.5001,3.3336 0.4167,-3.0833 0.4997,7.2502 0.4167,-3.3333 0.4167,6.7499 0.5,-1.9998 0.4167,8.1666 0.4167,-1.7496 0.5003,-0.5003 0.4167,3.9172 0.4167,8.0833 0.5,-2.7502 0.4167,-3.6663 0.5001,3.9166 0.4167,-1.0831 0.4166,3.9166 0.4998,1.0837 0.4167,8.9164 0.4167,-4.9998 0.5,3.9167 0.4167,0.5839 0.4167,-4.2503 0.5003,3.9167 0.4167,-2.1666 0.4167,9.5001 0.5,-5.9162 0.4167,-3.0838 0.5001,8.6672 0.4166,0.5831 0.4167,-5.3331 0.4998,2.2498 0.4167,-6.6662 0.4167,5.8331 0.5,-7.2496 0.4167,7.8333 0.4167,-5.3331 0.5003,3.0832 0.4167,3.0833 0.5,-13.4164 0.4167,2.2498 0.4164,-2.2498 0.5003,1.9165 0.4167,2.2504 0.4165,-8.9166 0.5,3.3332 0.4167,-6.1662 0.4167,7.8333 0.5,-4.9998 0.4167,-2.8335 0.4167,0.5839 0.4997,6.1665 0.4167,-6.1665 0.5003,-0.583 0.4167,-3.9167 0.4167,0.584 0.5001,-2.0002 h 0.4167 l 0.4166,-5.5834 0.5001,3.917 0.4167,-4.5 0.4167,0.3336 0.5,-2.2499 0.4167,-4.7497 0.4997,2.4996 0.4167,-1.6662 0.4167,-0.8334 0.5003,-1.1667 0.4167,-5.8332 0.4167,1.3334 0.5001,1.7507 0.4166,-5.0833 0.4167,6.9995 0.5001,0.584 0.4167,-13.4164 0.4167,6.0832 0.5003,-1.9163 0.4167,1.6668 0.4994,-4.7497 0.4167,9.8334 0.4167,-3.4169 0.5003,2.5001 0.4167,-1.6667 0.4167,-11.4166 0.5,5.2504 0.4167,-0.2495 0.4167,2.8332 0.5001,1.9168 0.4167,2.0001 0.5003,-1.4167 0.4167,0.25 0.4167,2.0004 0.4994,-1.6665 0.4167,-1.7495 0.4167,5.6664 0.5003,2.1668 0.4167,0.9173 0.4167,-9 0.5,8.6667 0.4167,3.4166 0.4167,2.1668 0.5001,-0.4998 0.4167,0.2501 0.5003,6.7498 0.4167,-5.6664 0.4167,4.5 0.4994,-6.4165 0.4167,5.3336 0.4167,-2.8338 0.5003,11.5002 0.4167,-4.5 0.4167,2.5001 0.5,1.1668 0.4167,3.6669 0.5001,-4.8331 0.4167,10.0828 0.4166,1.4168 0.4998,-0.8334 0.4167,-2.2498 0.4167,2.4998 0.5,-1.3331 0.4167,5.0003 0.4167,-3.3333 0.5003,8.4167 0.4167,-5.0834 0.4167,3.0835 0.5,-5.5828 0.4167,1.6668 0.5001,-0.8334 0.4166,4.9997 0.4167,-6.0831 0.4998,3.5835 0.4167,3.9167 0.4167,-1.6665 0.5,7.0001 0.4167,-11.4998 0.4167,9.8334 0.5003,-0.8334 0.4167,1.0837 0.5,-3.5836 0.4167,1.9168 0.4167,-2.833 0.5,-1.9167"
         style="fill:none;stroke:#b8232b;stroke-width:2.5713;stroke-linecap:butt;stroke-linejoin:round;stroke-miterlimit:10;stroke-dasharray:none;stroke-opacity:1"
         id="path182" /></g><g
       id="g184"
       transform="scale(0.7)"><path
         d="m 78.7521,279.8099 h 0.4167 l 0.4167,-6.6663 0.5003,6.4165 0.4167,-1.6659 0.4167,-2.8335 0.5,1.1667 0.4167,-4.5 0.4167,6.4168 h 0.5001 l 0.4167,-2.7499 0.4166,1.9171 0.5001,-1.6668 0.4167,5.3337 0.4997,-2.5002 0.4167,-3.0829 0.4167,3.0829 0.5003,-5.083 0.4167,4.5002 0.4167,-2.0004 0.5,2.8338 0.4167,-1.0828 h 0.4167 l 0.5001,1.6662 0.4166,-3.6666 0.5001,6.1668 0.4167,-5.0831 0.4167,-3.0836 0.4997,4.2506 0.4167,-0.5837 0.4167,-0.8334 0.5003,-35.5833 0.4167,-137.6665 0.4167,12.8336 0.5,131.3334 0.4167,65.7498 0.4167,22.667 0.5,-3.9161 0.4167,-11.7501 0.5001,-11.4996 0.4167,-19.5835 0.4167,-10.0828 0.4997,-10.5834 0.4167,-0.5831 0.4167,-3.9166 0.5003,-1.4165 0.4167,-4.7497 0.4167,5 0.5,-1.0828 0.4167,-7.2499 0.5,7.2499 0.4167,4.5 0.4167,-3.9161 0.5001,-2.8335 0.4167,11.2498 0.4167,-8.4163 0.4997,-1.6665 0.4167,8.0833 0.4167,1.6667 0.5003,-0.583 0.4167,8.7499 0.4167,5.0001 0.5,-7.833 0.4167,6.7501 0.5,5.8332 0.4167,-6.9996 0.4167,0.5836 0.5001,12.5833 0.4167,-7.8327 0.4166,4.9998 0.4998,9.25 0.4167,-0.2495 0.4167,0.8334 0.5003,-0.8334 0.4167,1.9165 0.5,-2.7499 0.4167,2.7502 0.4167,-2.7499 0.5,4.75 0.4167,2.0002 0.4167,3.5838 0.5001,-0.5836 0.4166,-2.7499 0.4167,-0.2495 0.4998,-2.0001 0.4167,-2.8329 0.4167,6.9995 0.5003,2.0005 0.4167,-8.1667 0.5,-0.8333 0.4167,5.6667 0.4167,-7.3332 0.5,2.0001 0.4167,2.7504 0.4167,-3.9166 0.5,-0.2494 0.4167,-0.8334 0.4167,0.5834 0.4998,-3.4166 0.4167,-3.0836 0.5003,-2.7496 0.4167,-2.2498 0.4167,3.3335 0.5,-8.6669 h 0.4167"
         style="fill:none;stroke:#b8232b;stroke-width:2.5713;stroke-linecap:butt;stroke-linejoin:round;stroke-miterlimit:10;stroke-dasharray:none;stroke-opacity:1"
         id="path186" /></g><text
       transform="scale(1,-1)"
       style="font-variant:normal;font-weight:normal;font-size:17.5px;font-family:Arial;-inkscape-font-specification:ArialMT;writing-mode:lr-tb;fill:#231f20;fill-opacity:1;fill-rule:nonzero;stroke:none"
       id="text190"
       x="183.19659"
       y="-9.5179005"><tspan
         x="183.19659 192.92661 202.6566 206.5416 216.27161 225.02161 229.8866 235.7141 245.44411 254.19409"
         y="-9.5179005"
         sodipodi:role="line"
         id="tspan188">delay (ps)</tspan></text><text
       transform="matrix(0,1,1,0,0,0)"
       style="font-variant:normal;font-weight:normal;font-size:17.5px;font-family:Symbol;-inkscape-font-specification:SymbolMT;writing-mode:lr-tb;fill:#231f20;fill-opacity:1;fill-rule:nonzero;stroke:none"
       id="text194"
       x="85.239197"
       y="26.0203"><tspan
         x="85.239197"
         y="26.0203"
         id="tspan192">D</tspan></text><text
       transform="matrix(0,1,1,0,0,0)"
       style="font-variant:normal;font-weight:normal;font-size:17.5px;font-family:Arial;-inkscape-font-specification:ArialMT;writing-mode:lr-tb;fill:#231f20;fill-opacity:1;fill-rule:nonzero;stroke:none"
       id="text198"
       x="95.946198"
       y="26.0203"><tspan
         x="95.946198 106.6387 111.5037 121.8722 131.6022 137.4297 142.29469 152.0247"
         y="26.0203"
         sodipodi:role="line"
         id="tspan196">T/T ( 10</tspan></text><text
       transform="matrix(0,1,1,0,0,0)"
       style="font-variant:normal;font-weight:normal;font-size:12.6px;font-family:Arial;-inkscape-font-specification:ArialMT;writing-mode:lr-tb;fill:#231f20;fill-opacity:1;fill-rule:nonzero;stroke:none"
       id="text202"
       x="163.1812"
       y="17.250799"><tspan
         x="163.1812 167.377"
         y="17.250799"
         sodipodi:role="line"
         id="tspan200">-4</tspan></text><text
       transform="matrix(0,1,1,0,0,0)"
       style="font-variant:normal;font-weight:normal;font-size:17.5px;font-family:Arial;-inkscape-font-specification:ArialMT;writing-mode:lr-tb;fill:#231f20;fill-opacity:1;fill-rule:nonzero;stroke:none"
       id="text206"
       x="175.94791"
       y="26.0203"><tspan
         x="175.94791"
         y="26.0203"
         id="tspan204">)</tspan></text></g></svg>
