<?xml version="1.0" encoding="UTF-8" standalone="no"?>
<svg
   xmlns:dc="http://purl.org/dc/elements/1.1/"
   xmlns:cc="http://creativecommons.org/ns#"
   xmlns:rdf="http://www.w3.org/1999/02/22-rdf-syntax-ns#"
   xmlns:svg="http://www.w3.org/2000/svg"
   xmlns="http://www.w3.org/2000/svg"
   xmlns:sodipodi="http://sodipodi.sourceforge.net/DTD/sodipodi-0.dtd"
   xmlns:inkscape="http://www.inkscape.org/namespaces/inkscape"
   version="1.1"
   id="svg10"
   xml:space="preserve"
   width="77.540337mm"
   height="28.318684mm"
   viewBox="0 0 293.06582 107.03124"
   sodipodi:docname="drude_vs_au_hybrid.svg"
   inkscape:version="1.0.2 (e86c8708, 2021-01-15)"><metadata
     id="metadata16"><rdf:RDF><cc:Work
         rdf:about=""><dc:format>image/svg+xml</dc:format><dc:type
           rdf:resource="http://purl.org/dc/dcmitype/StillImage" /><dc:title></dc:title></cc:Work></rdf:RDF></metadata><defs
     id="defs14" /><sodipodi:namedview
     pagecolor="#ffffff"
     bordercolor="#666666"
     borderopacity="1"
     objecttolerance="10"
     gridtolerance="10"
     guidetolerance="10"
     inkscape:pageopacity="0"
     inkscape:pageshadow="2"
     inkscape:window-width="1847"
     inkscape:window-height="1147"
     id="namedview12"
     showgrid="false"
     fit-margin-top="0"
     fit-margin-left="0"
     fit-margin-right="0"
     fit-margin-bottom="0"
     units="mm"
     inkscape:zoom="3.4944689"
     inkscape:cx="146.47918"
     inkscape:cy="5.9666631"
     inkscape:window-x="73"
     inkscape:window-y="25"
     inkscape:window-maximized="1"
     inkscape:current-layer="g20" /><g
     id="g18"
     inkscape:groupmode="layer"
     inkscape:label="ext-v4_s2"
     transform="matrix(1.3333333,0,0,-1.3333333,-4.1874949,111.3)"><g
       id="g20"
       transform="scale(0.1)"><g
         id="g321"><path
           d="m 144,201.5 h 900 V 831 H 144 Z"
           style="fill:none;stroke:#000000;stroke-width:7.5;stroke-linecap:round;stroke-linejoin:round;stroke-miterlimit:10;stroke-dasharray:none;stroke-opacity:1"
           id="path22" /><g
           id="g24"
           transform="scale(10)"><text
             transform="matrix(0,1,1,0,8.96484,21.2297)"
             style="font-style:normal;font-variant:normal;font-weight:normal;font-stretch:normal;font-size:8px;font-family:Arial;-inkscape-font-specification:Arial;writing-mode:lr-tb;fill:#000000;fill-opacity:1;fill-rule:nonzero;stroke:none"
             id="text28"><tspan
               x="0"
               y="0"
               sodipodi:role="line"
               id="tspan26">extinction (arb.u.)</tspan></text><text
             transform="matrix(1,0,0,-1,38.3453,4.88516)"
             style="font-style:normal;font-variant:normal;font-weight:normal;font-stretch:normal;font-size:8px;font-family:Arial;-inkscape-font-specification:Arial;writing-mode:lr-tb;fill:#000000;fill-opacity:1;fill-rule:nonzero;stroke:none"
             id="text32"><tspan
               x="0"
               y="0"
               sodipodi:role="line"
               id="tspan30">energy (eV) </tspan></text><text
             transform="matrix(1,0,0,-1,18.9,74.79996)"
             style="font-style:normal;font-variant:normal;font-weight:normal;font-stretch:normal;font-size:6px;font-family:Arial;-inkscape-font-specification:Arial;writing-mode:lr-tb;fill:#000000;fill-opacity:1;fill-rule:nonzero;stroke:none"
             id="text36"><tspan
               x="0"
               y="0"
               sodipodi:role="line"
               id="tspan34">Drude metal</tspan></text></g><path
           d="m 1044,213 -6.5,0.5 -13.5,0.5 -13.5,1 -13.5,1 -13,1 -13.5,1.5 -13,1.5 -13,2 -12.5,2 -13,2.5 -13,3 -12.5,3 -12.5,4 -12.5,4.5 -12,6 -12.5,6.5 -12,8.5 -12.5,11 -12,13.5 -12,17 -11.5,22.5 -12,29.5 -11.5,39 -11.5,51 -11.5,64.5 -11.5,75 -11.5,75 -11.5,56 -11,17 -11.5,-32.5 -11,-69 -11,-80 L 647.5,480 637,422 626,377.5 615.5,343.5 604.5,318 594,298.5 583.5,283 573,271 l -10.5,-9.5 -10,-8 -10.5,-6.5 -10,-5 -10.5,-4.5 -10,-4 -10,-3 -10,-3 -9.5,-2 -10,-2 -9.5,-2 -10,-1.5 -9.5,-1.5 -9.5,-1.5 -9.5,-1 -9.5,-1 -9.5,-1 -9.5,-0.5 -9,-1 -9.5,-0.5 -9,-0.5 -9,-0.5 -9,-0.5 -9,-0.5 -9,-0.5 -9,-0.5 -9,-0.5 h -9 l -8.5,-0.5 -8.5,-0.5 h -9 L 270.5,207 H 262 l -8.5,-0.5 h -17 l -8,-0.5 h -17 l -8,-0.5 H 187 l -8,-0.5 h -31.5 l -3.5,-0.5"
           style="fill:none;stroke:#00a03e;stroke-width:7.5;stroke-linecap:round;stroke-linejoin:round;stroke-miterlimit:10;stroke-dasharray:none;stroke-opacity:1"
           id="path38" /><path
           d="m 1044,219 -6.5,0.5 -13.5,1 -13.5,1.5 -13.5,2 -13,2.5 -13.5,2.5 -13,3.5 -13,4 -12.5,5 -13,6 -13,7.5 -12.5,10 -12.5,12 -12.5,16 -12,21 -12.5,28.5 -12,38 -12.5,50.5 -12,64.5 -12,75 L 784,637 772,665.5 760.5,639 749,574.5 737.5,501.5 726,438 714.5,389 703,352.5 l -11,-26 -11.5,-19 -11,-13 -11,-8.5 -11,-4.5 -10.5,-1 -11,3 -10.5,6.5 -11,9.5 -10.5,10 -10.5,6 L 573,313 562.5,302 552.5,287 542,272.5 532,260 l -10.5,-10 -10,-8 -10,-6 -10,-4.5 -9.5,-4 -10,-3 -9.5,-2.5 -10,-2 -9.5,-2 -9.5,-1.5 -9.5,-1 -9.5,-1 -9.5,-1 -9.5,-1 -9,-0.5 -9.5,-1 -9,-0.5 -9,-0.5 -9,-0.5 -9,-0.5 -9,-0.5 -9,-0.5 h -9 l -9,-0.5 h -8.5 L 288,207 h -9 l -8.5,-0.5 H 262 l -8.5,-0.5 h -17 l -8,-0.5 h -17 l -8,-0.5 H 179 l -8,-0.5 h -27"
           style="fill:none;stroke:#da251d;stroke-width:7.5;stroke-linecap:round;stroke-linejoin:round;stroke-miterlimit:10;stroke-dasharray:none;stroke-opacity:1"
           id="path44" /><path
           d="m 1044,220.5 -6.5,1.5 -13.5,3 -13.5,1.5 H 984 l -13.5,0.5 -13,2 -13,3 -12.5,4.5 -13,7 -13,9 -12.5,13 -12.5,18 -12.5,24 -12,28.5 -12.5,26.5 -12,11 -12.5,-11.5 -12,-26 -12,-28 L 784,285 772,267.5 760.5,255 749,246.5 737.5,240 726,235.5 714.5,232 703,229.5 692,228 l -11.5,-0.5 -11,-0.5 h -22 l -10.5,1 -11,1 -10.5,2 -11,2 -10.5,2.5 -10.5,3.5 -10.5,4 -10.5,5 -10,6 -10.5,8 -10,9.5 -10.5,12 -10,16 -10,20 -10,25.5 -9.5,32.5 -10,41 -9.5,48.5 -10,51.5 -9.5,43 -9.5,20 -9.5,-12 -9.5,-37.5 -9.5,-50 -9.5,-49 -9,-42.5 -9.5,-35 -9,-27.5 -9,-21.5 -9,-16.5 -9,-13.5 -9,-10.5 -9,-9 -9,-7 -9,-5.5 -8.5,-5 -8.5,-4 -9,-3.5 -8.5,-3 -8.5,-2.5 -8.5,-2 -8.5,-2 -8.5,-2 -8,-1.5 -8.5,-1 -8.5,-1.5 -8,-1 -8,-1 -8.5,-0.5 -8,-1 -8,-0.5 -8,-0.5 -8,-1 -7.5,-0.5 H 144"
           style="fill:none;stroke:#282071;stroke-width:7.5;stroke-linecap:round;stroke-linejoin:round;stroke-miterlimit:10;stroke-dasharray:none;stroke-opacity:1"
           id="path46" /><path
           d="M 185,201.5 V 217 m 0,614 v -15.5 m 81.5,-614 V 233 m 0,598 v -31.5"
           style="fill:none;stroke:#000000;stroke-width:7.5;stroke-linecap:round;stroke-linejoin:round;stroke-miterlimit:10;stroke-dasharray:none;stroke-opacity:1"
           id="path48" /><g
           id="g50"
           transform="scale(10)"><text
             transform="matrix(1,0,0,-1,23.8152,12.15)"
             style="font-style:normal;font-variant:normal;font-weight:normal;font-stretch:normal;font-size:6px;font-family:Arial;-inkscape-font-specification:Arial;writing-mode:lr-tb;fill:#000000;fill-opacity:1;fill-rule:nonzero;stroke:none"
             id="text54"><tspan
               x="0"
               y="0"
               sodipodi:role="line"
               id="tspan52">3.6</tspan></text></g><path
           d="M 348.5,201.5 V 217 m 0,614 v -15.5 m 82,-614 V 233 m 0,598 v -31.5"
           style="fill:none;stroke:#000000;stroke-width:7.5;stroke-linecap:round;stroke-linejoin:round;stroke-miterlimit:10;stroke-dasharray:none;stroke-opacity:1"
           id="path56" /><g
           id="g58"
           transform="scale(10)"><text
             transform="matrix(1,0,0,-1,40.2152,12.15)"
             style="font-style:normal;font-variant:normal;font-weight:normal;font-stretch:normal;font-size:6px;font-family:Arial;-inkscape-font-specification:Arial;writing-mode:lr-tb;fill:#000000;fill-opacity:1;fill-rule:nonzero;stroke:none"
             id="text62"><tspan
               x="0"
               y="0"
               sodipodi:role="line"
               id="tspan60">3.8</tspan></text></g><path
           d="M 512,201.5 V 217 m 0,614 v -15.5 m 82,-614 V 233 m 0,598 v -31.5"
           style="fill:none;stroke:#000000;stroke-width:7.5;stroke-linecap:round;stroke-linejoin:round;stroke-miterlimit:10;stroke-dasharray:none;stroke-opacity:1"
           id="path64" /><g
           id="g66"
           transform="scale(10)"><text
             transform="matrix(1,0,0,-1,58.8984,12.15)"
             style="font-style:normal;font-variant:normal;font-weight:normal;font-stretch:normal;font-size:6px;font-family:Arial;-inkscape-font-specification:Arial;writing-mode:lr-tb;fill:#000000;fill-opacity:1;fill-rule:nonzero;stroke:none"
             id="text70"><tspan
               x="0"
               y="0"
               id="tspan68"
               style="font-style:normal;font-variant:normal;font-weight:normal;font-stretch:normal;font-family:Arial;-inkscape-font-specification:Arial">4</tspan></text></g><path
           d="M 676,201.5 V 217 m 0,614 v -15.5 m 81.5,-614 V 233 m 0,598 v -31.5"
           style="fill:none;stroke:#000000;stroke-width:7.5;stroke-linecap:round;stroke-linejoin:round;stroke-miterlimit:10;stroke-dasharray:none;stroke-opacity:1"
           id="path72" /><g
           id="g74"
           transform="scale(10)"><text
             transform="matrix(1,0,0,-1,72.9152,12.15)"
             style="font-style:normal;font-variant:normal;font-weight:normal;font-stretch:normal;font-size:6px;font-family:Arial;-inkscape-font-specification:Arial;writing-mode:lr-tb;fill:#000000;fill-opacity:1;fill-rule:nonzero;stroke:none"
             id="text78"><tspan
               x="0"
               y="0"
               sodipodi:role="line"
               id="tspan76">4.2</tspan></text></g><path
           d="M 839.5,201.5 V 217 m 0,614 v -15.5 m 82,-614 V 233 m 0,598 v -31.5"
           style="fill:none;stroke:#000000;stroke-width:7.5;stroke-linecap:round;stroke-linejoin:round;stroke-miterlimit:10;stroke-dasharray:none;stroke-opacity:1"
           id="path80" /><g
           id="g82"
           transform="scale(10)"><text
             transform="matrix(1,0,0,-1,89.3152,12.15)"
             style="font-style:normal;font-variant:normal;font-weight:normal;font-stretch:normal;font-size:6px;font-family:Arial;-inkscape-font-specification:Arial;writing-mode:lr-tb;fill:#000000;fill-opacity:1;fill-rule:nonzero;stroke:none"
             id="text86"><tspan
               x="0"
               y="0"
               sodipodi:role="line"
               id="tspan84">4.4</tspan></text></g><path
           d="M 1003,201.5 V 217 m 0,614 v -15.5"
           style="fill:none;stroke:#000000;stroke-width:7.5;stroke-linecap:round;stroke-linejoin:round;stroke-miterlimit:10;stroke-dasharray:none;stroke-opacity:1"
           id="path88" /><path
           d="m 144,201.5 h 900 V 831 H 144 Z"
           style="fill:none;stroke:#000000;stroke-width:7.5;stroke-linecap:round;stroke-linejoin:round;stroke-miterlimit:10;stroke-dasharray:none;stroke-opacity:1"
           id="path90" /><path
           d="M 403,619 418.5,610.5 403,602 m -16,8.5 h 31.5 M 448,619 463.5,610.5 448,602 m -16,8.5 h 31.5 M 812,382 796.5,390.5 812,399 m 16,-8.5 h -31.5 m 61,8.5 15.5,-8.5 -15.5,-8.5 m -16,8.5 H 873"
           style="fill:none;stroke:#282071;stroke-width:3.75;stroke-linecap:round;stroke-linejoin:round;stroke-miterlimit:10;stroke-dasharray:none;stroke-opacity:1"
           id="path92" /><path
           d="m 756.5,704 8.5,15.5 8.5,-15.5 M 765,686 v 33.5 M 776.5,708 783,719.5 789.5,708 M 783,686 v 33.5 m -224.5,-362 8.5,15.5 8.5,-15.5 M 567,340 v 33 M 591.5,351.5 585,340 578.5,351.5 M 585,373 v -33"
           style="fill:none;stroke:#da251d;stroke-width:3.75;stroke-linecap:round;stroke-linejoin:round;stroke-miterlimit:10;stroke-dasharray:none;stroke-opacity:1"
           id="path94" /><path
           d="m 1134,201.5 h 900 V 831 h -900 z"
           style="fill:none;stroke:#000000;stroke-width:7.5;stroke-linecap:round;stroke-linejoin:round;stroke-miterlimit:10;stroke-dasharray:none;stroke-opacity:1"
           id="path96" /><g
           id="g98"
           transform="scale(10)"><text
             transform="matrix(0,1,1,0,220.465,25.6305)"
             style="font-style:normal;font-variant:normal;font-weight:normal;font-stretch:normal;font-size:8px;font-family:Arial;-inkscape-font-specification:Arial;writing-mode:lr-tb;fill:#000000;fill-opacity:1;fill-rule:nonzero;stroke:none"
             id="text102"><tspan
               x="0"
               y="0"
               id="tspan100"
               style="font-style:normal;font-variant:normal;font-weight:normal;font-stretch:normal;font-family:Arial;-inkscape-font-specification:Arial">σ</tspan></text><text
             transform="matrix(0,1,1,0,222.865,30.45433)"
             style="font-style:normal;font-variant:normal;font-weight:normal;font-stretch:normal;font-size:6.4px;font-family:Arial;-inkscape-font-specification:Arial;writing-mode:lr-tb;fill:#000000;fill-opacity:1;fill-rule:nonzero;stroke:none"
             id="text106"><tspan
               x="0"
               y="0"
               sodipodi:role="line"
               id="tspan104">ext</tspan></text><text
             transform="matrix(0,1,1,0,220.465,43.88897)"
             style="font-style:normal;font-variant:normal;font-weight:normal;font-stretch:normal;font-size:8px;font-family:Arial;-inkscape-font-specification:Arial;writing-mode:lr-tb;fill:#000000;fill-opacity:1;fill-rule:nonzero;stroke:none"
             id="text110"><tspan
               x="0"
               y="0"
               sodipodi:role="line"
               id="tspan108">(10</tspan></text><text
             transform="matrix(0,1,1,0,216.465,55.00547)"
             style="font-style:normal;font-variant:normal;font-weight:normal;font-stretch:normal;font-size:6.4px;font-family:Arial;-inkscape-font-specification:Arial;writing-mode:lr-tb;fill:#000000;fill-opacity:1;fill-rule:nonzero;stroke:none"
             id="text114"><tspan
               x="0"
               y="0"
               id="tspan112"
               style="font-style:normal;font-variant:normal;font-weight:normal;font-stretch:normal;font-family:Arial;-inkscape-font-specification:Arial">4</tspan></text><text
             transform="matrix(0,1,1,0,220.465,60.86947)"
             style="font-style:normal;font-variant:normal;font-weight:normal;font-stretch:normal;font-size:8px;font-family:Arial;-inkscape-font-specification:Arial;writing-mode:lr-tb;fill:#000000;fill-opacity:1;fill-rule:nonzero;stroke:none"
             id="text118"><tspan
               x="0"
               y="0"
               sodipodi:role="line"
               id="tspan116">nm</tspan></text><text
             transform="matrix(0,1,1,0,216.465,71.36097)"
             style="font-style:normal;font-variant:normal;font-weight:normal;font-stretch:normal;font-size:6.4px;font-family:Arial;-inkscape-font-specification:Arial;writing-mode:lr-tb;fill:#000000;fill-opacity:1;fill-rule:nonzero;stroke:none"
             id="text122"><tspan
               x="0"
               y="0"
               id="tspan120"
               style="font-style:normal;font-variant:normal;font-weight:normal;font-stretch:normal;font-family:Arial;-inkscape-font-specification:Arial">2</tspan></text><text
             transform="matrix(0,1,1,0,220.465,74.56097)"
             style="font-style:normal;font-variant:normal;font-weight:normal;font-stretch:normal;font-size:8px;font-family:Arial;-inkscape-font-specification:Arial;writing-mode:lr-tb;fill:#000000;fill-opacity:1;fill-rule:nonzero;stroke:none"
             id="text126"><tspan
               x="0"
               y="0"
               id="tspan124"
               style="font-style:normal;font-variant:normal;font-weight:normal;font-stretch:normal;font-family:Arial;-inkscape-font-specification:Arial">)</tspan></text><text
             transform="matrix(1,0,0,-1,137.345,4.88516)"
             style="font-style:normal;font-variant:normal;font-weight:normal;font-stretch:normal;font-size:8px;font-family:Arial;-inkscape-font-specification:Arial;writing-mode:lr-tb;fill:#000000;fill-opacity:1;fill-rule:nonzero;stroke:none"
             id="text130"><tspan
               x="0"
               y="0"
               sodipodi:role="line"
               id="tspan128">energy (eV) </tspan></text><text
             transform="matrix(1,0,0,-1,117.8997,74.79996)"
             style="font-style:normal;font-variant:normal;font-weight:normal;font-stretch:normal;font-size:6px;font-family:Arial;-inkscape-font-specification:Arial;writing-mode:lr-tb;fill:#000000;fill-opacity:1;fill-rule:nonzero;stroke:none"
             id="text134"><tspan
               x="0"
               y="0"
               sodipodi:role="line"
               id="tspan132">real Au</tspan></text></g><path
           d="m 2034,408 -4,-0.5 -11.5,-0.5 -11,-0.5 -11.5,-0.5 -11,-0.5 h -43 l -10.5,0.5 -10.5,0.5 -10.5,1 -10,1.5 -10.5,1.5 -10,2 -10,2.5 -10,3.5 -10,3.5 -9.5,4.5 -10,5 -9.5,5.5 -9.5,7 -9.5,7 -9.5,8.5 -9,9 -9.5,9.5 -9,10.5 -9.5,11 -9,11.5 -9,12 -8.5,12 -9,11.5 -9,11 -8.5,10.5 -8.5,9.5 -9,8 -8.5,7.5 -8,6 -8.5,5 -8.5,3.5 -8,2.5 -8.5,1 h -8 l -8,-1 -8,-2 -8,-3 -8,-4 -8,-4.5 -7.5,-5.5 -8,-6.5 -7.5,-7 -7.5,-8 -7.5,-8 -8,-9 -7,-9.5 -7.5,-10 -7.5,-10.5 -7.5,-10.5 -7,-10.5 -7.5,-11 -7,-10.5 -7,-11 -7,-10.5 -7,-10.5 -7,-10 -7,-10 -7,-9.5 -6.5,-9 -7,-9 -6.5,-8.5 -7,-8 -13,-14.5 -13,-13.5 -13,-12 -13,-11 -12.5,-10 -12.5,-8.5 -12,-8 -12,-7.5 -12,-6.5 -12,-6 -11.5,-5 -11.5,-5 -11.5,-4.5 -11,-4 -11,-4 -11,-3.5 -11,-3 -10.5,-2.5 -11,-3 -10,-2 -10.5,-2.5 -10,-2 -10.5,-2 -10,-1.5 -9.5,-2"
           style="fill:none;stroke:#00a03e;stroke-width:7.5;stroke-linecap:round;stroke-linejoin:round;stroke-miterlimit:10;stroke-dasharray:none;stroke-opacity:1"
           id="path136" /><path
           d="m 2034,391 h -4 l -11.5,-0.5 -11,-0.5 H 1996 l -11,-0.5 h -32.5 l -10.5,0.5 -10.5,0.5 -10.5,0.5 -10.5,1 -10,1 -10.5,1.5 -10,2 -10,2.5 -10,2.5 -10,3 -9.5,4 -10,4.5 -9.5,5 -9.5,5.5 -9.5,6 -9.5,7 -9,7.5 -9.5,7.5 -9,8.5 -9.5,8.5 -9,9 -9,8.5 -8.5,8.5 -9,8.5 -9,8 -8.5,7 -8.5,6.5 -9,6 -8.5,5.5 -8,5 -8.5,4.5 -8.5,3.5 -8,3 -8.5,2.5 -8,1.5 -8,1 -8,0.5 h -8 l -8,-1.5 -8,-1.5 -7.5,-2.5 -8,-3.5 -7.5,-4.5 -7.5,-5 -7.5,-5.5 -8,-6.5 -7,-7 -7.5,-8 -7.5,-8 -7.5,-8.5 -7,-9 -7.5,-9 -7,-9.5 -7,-9.5 -7,-9 -7,-9.5 -7,-9 -7,-9 -7,-8.5 -6.5,-8 -7,-8.5 -6.5,-7.5 -7,-7.5 -13,-13.5 -13,-12.5 -13,-11.5 -13,-10.5 -12.5,-9 -12.5,-8.5 -12,-7.5 -12,-7 -12,-6.5 -12,-5.5 -11.5,-5.5 -11.5,-4.5 -11.5,-4.5 -11,-4 -11,-4 -11,-3.5 -11,-3 -10.5,-3 -11,-2.5 -10,-2.5 -10.5,-2 -10,-2 -10.5,-2 -10,-2 -9.5,-2"
           style="fill:none;stroke:#da251d;stroke-width:7.5;stroke-linecap:round;stroke-linejoin:round;stroke-miterlimit:10;stroke-dasharray:none;stroke-opacity:1"
           id="path142" /><path
           d="m 2034,403.5 -4,-0.5 -11.5,-0.5 -11,-1 -11.5,-0.5 -11,-0.5 -10.5,-0.5 -11,-0.5 -11,-0.5 -10.5,-0.5 -10.5,-0.5 h -21 l -10,0.5 -10.5,0.5 -10,1 -10,1 -10,1.5 -10,1.5 -9.5,2.5 -10,2.5 -9.5,3.5 -9.5,3.5 -9.5,4.5 -9.5,4.5 -9,5 -9.5,5.5 -9,6 -9.5,6 -9,6.5 -9,6.5 -8.5,7 -9,7 -9,7.5 -8.5,7.5 -8.5,7.5 -9,8 -8.5,8.5 -8,8.5 -8.5,9 -8.5,9.5 -8,10.5 -8.5,10 -8,11 -8,11 -8,11.5 -8,12 -8,12 -8,12 -7.5,12 -8,12 -7.5,12 -7.5,11.5 -7.5,11 -8,10.5 -7,9.5 -7.5,9 -7.5,7 -7.5,6.5 -7,4.5 -7.5,2.5 -7,1.5 -7,-1 -7,-2.5 -7,-5 -7,-6 -7,-8 -7,-9.5 -6.5,-10.5 -7,-11.5 -6.5,-12.5 -7,-13 -13,-27.5 -13,-28 -13,-27.5 -13,-26.5 -12.5,-25 -12.5,-23 -12,-22 -12,-19.5 -12,-18.5 -12,-17 -11.5,-15.5 -11.5,-14 -11.5,-13 -11,-11.5 -11,-11 -11,-10 -11,-8.5 -10.5,-8.5 -11,-7.5 -10,-7 -10.5,-6 -10,-6 -10.5,-5.5 -10,-5 -9.5,-4.5"
           style="fill:none;stroke:#282071;stroke-width:7.5;stroke-linecap:round;stroke-linejoin:round;stroke-miterlimit:10;stroke-dasharray:none;stroke-opacity:1"
           id="path144" /><path
           d="M 1163,201.5 V 233 m 0,598 v -31.5"
           style="fill:none;stroke:#000000;stroke-width:7.5;stroke-linecap:round;stroke-linejoin:round;stroke-miterlimit:10;stroke-dasharray:none;stroke-opacity:1"
           id="path146" /><g
           id="g148"
           transform="scale(10)"><text
             transform="matrix(1,0,0,-1,113.465,12.15)"
             style="font-style:normal;font-variant:normal;font-weight:normal;font-stretch:normal;font-size:6px;font-family:Arial;-inkscape-font-specification:Arial;writing-mode:lr-tb;fill:#000000;fill-opacity:1;fill-rule:nonzero;stroke:none"
             id="text152"><tspan
               x="0"
               y="0"
               sodipodi:role="line"
               id="tspan150">1.8</tspan></text></g><path
           d="M 1260,201.5 V 217 m 0,614 v -15.5 m 96.5,-614 V 233 m 0,598 v -31.5"
           style="fill:none;stroke:#000000;stroke-width:7.5;stroke-linecap:round;stroke-linejoin:round;stroke-miterlimit:10;stroke-dasharray:none;stroke-opacity:1"
           id="path154" /><g
           id="g156"
           transform="scale(10)"><text
             transform="matrix(1,0,0,-1,135.148,12.15)"
             style="font-style:normal;font-variant:normal;font-weight:normal;font-stretch:normal;font-size:6px;font-family:Arial;-inkscape-font-specification:Arial;writing-mode:lr-tb;fill:#000000;fill-opacity:1;fill-rule:nonzero;stroke:none"
             id="text160"><tspan
               x="0"
               y="0"
               id="tspan158"
               style="font-style:normal;font-variant:normal;font-weight:normal;font-stretch:normal;font-family:Arial;-inkscape-font-specification:Arial">2</tspan></text></g><path
           d="M 1453.5,201.5 V 217 m 0,614 v -15.5 m 96.5,-614 V 233 m 0,598 v -31.5"
           style="fill:none;stroke:#000000;stroke-width:7.5;stroke-linecap:round;stroke-linejoin:round;stroke-miterlimit:10;stroke-dasharray:none;stroke-opacity:1"
           id="path162" /><g
           id="g164"
           transform="scale(10)"><text
             transform="matrix(1,0,0,-1,152.165,12.15)"
             style="font-style:normal;font-variant:normal;font-weight:normal;font-stretch:normal;font-size:6px;font-family:Arial;-inkscape-font-specification:Arial;writing-mode:lr-tb;fill:#000000;fill-opacity:1;fill-rule:nonzero;stroke:none"
             id="text168"><tspan
               x="0"
               y="0"
               sodipodi:role="line"
               id="tspan166">2.2</tspan></text></g><path
           d="M 1647,201.5 V 217 m 0,614 v -15.5 m 96.5,-614 V 233 m 0,598 v -31.5"
           style="fill:none;stroke:#000000;stroke-width:7.5;stroke-linecap:round;stroke-linejoin:round;stroke-miterlimit:10;stroke-dasharray:none;stroke-opacity:1"
           id="path170" /><g
           id="g172"
           transform="scale(10)"><text
             transform="matrix(1,0,0,-1,171.515,12.15)"
             style="font-style:normal;font-variant:normal;font-weight:normal;font-stretch:normal;font-size:6px;font-family:Arial;-inkscape-font-specification:Arial;writing-mode:lr-tb;fill:#000000;fill-opacity:1;fill-rule:nonzero;stroke:none"
             id="text176"><tspan
               x="0"
               y="0"
               sodipodi:role="line"
               id="tspan174">2.4</tspan></text></g><path
           d="M 1840.5,201.5 V 217 m 0,614 v -15.5 m 96.5,-614 V 233 m 0,598 v -31.5"
           style="fill:none;stroke:#000000;stroke-width:7.5;stroke-linecap:round;stroke-linejoin:round;stroke-miterlimit:10;stroke-dasharray:none;stroke-opacity:1"
           id="path178" /><g
           id="g180"
           transform="scale(10)"><text
             transform="matrix(1,0,0,-1,190.865,12.15)"
             style="font-style:normal;font-variant:normal;font-weight:normal;font-stretch:normal;font-size:6px;font-family:Arial;-inkscape-font-specification:Arial;writing-mode:lr-tb;fill:#000000;fill-opacity:1;fill-rule:nonzero;stroke:none"
             id="text184"><tspan
               x="0"
               y="0"
               sodipodi:role="line"
               id="tspan182">2.6</tspan></text></g><path
           d="M 2034,201.5 V 217 m 0,614 v -15.5 m 0,-614 h -31.5"
           style="fill:none;stroke:#000000;stroke-width:7.5;stroke-linecap:round;stroke-linejoin:round;stroke-miterlimit:10;stroke-dasharray:none;stroke-opacity:1"
           id="path186" /><g
           id="g188"
           transform="scale(10)"><text
             transform="matrix(1,0,0,-1,207,18.15)"
             style="font-style:normal;font-variant:normal;font-weight:normal;font-stretch:normal;font-size:6px;font-family:Arial;-inkscape-font-specification:Arial;writing-mode:lr-tb;fill:#000000;fill-opacity:1;fill-rule:nonzero;stroke:none"
             id="text192"><tspan
               x="0"
               y="0"
               id="tspan190"
               style="font-style:normal;font-variant:normal;font-weight:normal;font-stretch:normal;font-family:Arial;-inkscape-font-specification:Arial">0</tspan></text></g><path
           d="m 2034,381.5 h -31.5"
           style="fill:none;stroke:#000000;stroke-width:7.5;stroke-linecap:round;stroke-linejoin:round;stroke-miterlimit:10;stroke-dasharray:none;stroke-opacity:1"
           id="path194" /><g
           id="g196"
           transform="scale(10)"><text
             transform="matrix(1,0,0,-1,207,36.15)"
             style="font-style:normal;font-variant:normal;font-weight:normal;font-stretch:normal;font-size:6px;font-family:Arial;-inkscape-font-specification:Arial;writing-mode:lr-tb;fill:#000000;fill-opacity:1;fill-rule:nonzero;stroke:none"
             id="text200"><tspan
               x="0"
               y="0"
               id="tspan198"
               style="font-style:normal;font-variant:normal;font-weight:normal;font-stretch:normal;font-family:Arial;-inkscape-font-specification:Arial">2</tspan></text></g><path
           d="m 2034,561 h -31.5"
           style="fill:none;stroke:#000000;stroke-width:7.5;stroke-linecap:round;stroke-linejoin:round;stroke-miterlimit:10;stroke-dasharray:none;stroke-opacity:1"
           id="path202" /><g
           id="g204"
           transform="scale(10)"><text
             transform="matrix(1,0,0,-1,207,54.1)"
             style="font-style:normal;font-variant:normal;font-weight:normal;font-stretch:normal;font-size:6px;font-family:Arial;-inkscape-font-specification:Arial;writing-mode:lr-tb;fill:#000000;fill-opacity:1;fill-rule:nonzero;stroke:none"
             id="text208"><tspan
               x="0"
               y="0"
               id="tspan206"
               style="font-style:normal;font-variant:normal;font-weight:normal;font-stretch:normal;font-family:Arial;-inkscape-font-specification:Arial">4</tspan></text></g><path
           d="m 2034,741 h -31.5"
           style="fill:none;stroke:#000000;stroke-width:7.5;stroke-linecap:round;stroke-linejoin:round;stroke-miterlimit:10;stroke-dasharray:none;stroke-opacity:1"
           id="path210" /><g
           id="g212"
           transform="scale(10)"><text
             transform="matrix(1,0,0,-1,207,72.1)"
             style="font-style:normal;font-variant:normal;font-weight:normal;font-stretch:normal;font-size:6px;font-family:Arial;-inkscape-font-specification:Arial;writing-mode:lr-tb;fill:#000000;fill-opacity:1;fill-rule:nonzero;stroke:none"
             id="text216"><tspan
               x="0"
               y="0"
               id="tspan214"
               style="font-style:normal;font-variant:normal;font-weight:normal;font-stretch:normal;font-family:Arial;-inkscape-font-specification:Arial">6</tspan></text></g><path
           d="m 1134,201.5 h 900 V 831 h -900 z"
           style="fill:none;stroke:#000000;stroke-width:7.5;stroke-linecap:round;stroke-linejoin:round;stroke-miterlimit:10;stroke-dasharray:none;stroke-opacity:1"
           id="path218" /><path
           d="m 1465,770.5 15.5,-8.5 -15.5,-8.5 m -16,8.5 h 31.5 m 29.5,8.5 15.5,-8.5 -15.5,-8.5 m -16,8.5 h 31.5"
           style="fill:none;stroke:#282071;stroke-width:3.75;stroke-linecap:round;stroke-linejoin:round;stroke-miterlimit:10;stroke-dasharray:none;stroke-opacity:1"
           id="path220" /><path
           d="m 1575.5,502.5 8.5,15.5 8.5,-15.5 M 1584,485 v 33 m 11.5,-11.5 6.5,11.5 6.5,-11.5 M 1602,485 v 33"
           style="fill:none;stroke:#da251d;stroke-width:3.75;stroke-linecap:round;stroke-linejoin:round;stroke-miterlimit:10;stroke-dasharray:none;stroke-opacity:1"
           id="path222" /></g></g></g></svg>
