<?xml version="1.0" encoding="UTF-8" standalone="no"?>
<svg
   xmlns:dc="http://purl.org/dc/elements/1.1/"
   xmlns:cc="http://creativecommons.org/ns#"
   xmlns:rdf="http://www.w3.org/1999/02/22-rdf-syntax-ns#"
   xmlns:svg="http://www.w3.org/2000/svg"
   xmlns="http://www.w3.org/2000/svg"
   xmlns:sodipodi="http://sodipodi.sourceforge.net/DTD/sodipodi-0.dtd"
   xmlns:inkscape="http://www.inkscape.org/namespaces/inkscape"
   inkscape:version="1.0 (4035a4f, 2020-05-01)"
   sodipodi:docname="chi3-processes.svg"
   viewBox="0 0 440 139.16602"
   height="139.16602"
   width="440"
   xml:space="preserve"
   id="svg10"
   version="1.1"><metadata
     id="metadata16"><rdf:RDF><cc:Work
         rdf:about=""><dc:format>image/svg+xml</dc:format><dc:type
           rdf:resource="http://purl.org/dc/dcmitype/StillImage" /><dc:title></dc:title></cc:Work></rdf:RDF></metadata><defs
     id="defs14" /><sodipodi:namedview
     inkscape:current-layer="g20"
     inkscape:window-maximized="0"
     inkscape:window-y="23"
     inkscape:window-x="138"
     inkscape:cy="69.583008"
     inkscape:cx="220"
     inkscape:zoom="2.3931818"
     showgrid="false"
     id="namedview12"
     inkscape:window-height="676"
     inkscape:window-width="1338"
     inkscape:pageshadow="2"
     inkscape:pageopacity="0"
     guidetolerance="10"
     gridtolerance="10"
     objecttolerance="10"
     borderopacity="1"
     bordercolor="#666666"
     pagecolor="#ffffff" /><g
     transform="matrix(1.3333333,0,0,-1.3333333,0,139.16601)"
     inkscape:label="chi3-processes"
     inkscape:groupmode="layer"
     id="g18"><g
       id="g20"><g
         transform="matrix(1,0,0,-1,0,104.3745)"
         id="g22"><path
           id="path24"
           style="fill:none;stroke:#edb120;stroke-width:0.751181;stroke-linecap:butt;stroke-linejoin:miter;stroke-miterlimit:4;stroke-dasharray:none;stroke-opacity:1"
           d="M 297.734,88.531 V 50.281" /></g><g
         transform="matrix(0,-1,-1,0,0,104.3745)"
         id="g26"><path
           id="path28"
           style="fill:#edb120;fill-opacity:1;fill-rule:evenodd;stroke:#edb120;stroke-width:0.281693;stroke-linecap:butt;stroke-linejoin:round;stroke-miterlimit:4;stroke-dasharray:none;stroke-opacity:1"
           d="m 54.211,-295.918 -4.926,-1.812 4.926,-1.809 c -0.785,1.07 -0.781,2.531 0,3.621 z" /></g><g
         transform="matrix(1,0,0,-1,0,104.3745)"
         id="g30"><path
           id="path32"
           style="fill:none;stroke:#77ac30;stroke-width:0.7515;stroke-linecap:butt;stroke-linejoin:miter;stroke-miterlimit:4;stroke-dasharray:none;stroke-opacity:1"
           d="M 297.734,48.781 V 7.602" /></g><g
         transform="matrix(0,-1,-1,0,0,104.3745)"
         id="g34"><path
           id="path36"
           style="fill:#77ac30;fill-opacity:1;fill-rule:evenodd;stroke:#77ac30;stroke-width:0.281812;stroke-linecap:butt;stroke-linejoin:round;stroke-miterlimit:4;stroke-dasharray:none;stroke-opacity:1"
           d="m 11.531,-295.918 -4.926,-1.812 4.926,-1.809 c -0.785,1.066 -0.781,2.531 0,3.621 z" /></g><g
         transform="matrix(1,0,0,-1,0,104.3745)"
         id="g38"><path
           id="path40"
           style="fill:none;stroke:#a2142f;stroke-width:0.7515;stroke-linecap:butt;stroke-linejoin:miter;stroke-miterlimit:4;stroke-dasharray:none;stroke-opacity:1"
           d="M 312.734,6.016 V 40.895" /></g><g
         transform="matrix(0,1,1,0,0,104.3745)"
         id="g42"><path
           id="path44"
           style="fill:#a2142f;fill-opacity:1;fill-rule:evenodd;stroke:#a2142f;stroke-width:0.281812;stroke-linecap:butt;stroke-linejoin:round;stroke-miterlimit:4;stroke-dasharray:none;stroke-opacity:1"
           d="m -36.965,314.555 -4.926,-1.813 4.926,-1.808 c -0.785,1.066 -0.781,2.531 0,3.621 z" /></g><g
         transform="matrix(1,0,0,-1,0,104.3745)"
         id="g46"><path
           id="path48"
           style="fill:none;stroke:#0072bd;stroke-width:0.751181;stroke-linecap:butt;stroke-linejoin:miter;stroke-miterlimit:4;stroke-dasharray:none;stroke-opacity:1"
           d="M 312.738,42.031 V 87.395" /></g><g
         transform="matrix(0,1,1,0,0,104.3745)"
         id="g50"><path
           id="path52"
           style="fill:#0072bd;fill-opacity:1;fill-rule:evenodd;stroke:#0072bd;stroke-width:0.281693;stroke-linecap:butt;stroke-linejoin:round;stroke-miterlimit:4;stroke-dasharray:none;stroke-opacity:1"
           d="m -83.465,314.559 -4.926,-1.813 4.926,-1.812 c -0.789,1.07 -0.785,2.535 0,3.625 z" /></g><g
         transform="matrix(1,0,0,-1,0,104.3745)"
         id="g54"><path
           id="path56"
           style="fill:none;stroke:#000000;stroke-width:0.75;stroke-linecap:butt;stroke-linejoin:miter;stroke-miterlimit:4;stroke-dasharray:none;stroke-opacity:1"
           d="m 290.238,88.531 h 30" /></g><g
         transform="matrix(1,0,0,-1,0,104.3745)"
         id="g58"><path
           id="path60"
           style="fill:none;stroke:#000000;stroke-width:0.75;stroke-linecap:butt;stroke-linejoin:miter;stroke-miterlimit:4;stroke-dasharray:2.25, 2.25;stroke-dashoffset:2.7;stroke-opacity:1"
           d="m 305.238,42.406 h 15" /></g><g
         transform="matrix(1,0,0,-1,0,104.3745)"
         id="g62"><path
           id="path64"
           style="fill:none;stroke:#000000;stroke-width:0.75;stroke-linecap:butt;stroke-linejoin:miter;stroke-miterlimit:4;stroke-dasharray:2.25, 2.25;stroke-dashoffset:0.825;stroke-opacity:1"
           d="m 290.238,6.031 h 30" /></g><text
         id="text68"
         style="font-variant:normal;font-weight:normal;font-size:10px;font-family:'Times New Roman';-inkscape-font-specification:TimesNewRomanPSMT;writing-mode:lr-tb;fill:#000000;fill-opacity:1;fill-rule:nonzero;stroke:none"
         transform="matrix(0,1,1,0,293.71536,27.083351)"><tspan
           id="tspan66"
           y="0"
           x="0">ω</tspan></text><text
         id="text72"
         style="font-variant:normal;font-weight:normal;font-size:6.5px;font-family:'Times New Roman';-inkscape-font-specification:TimesNewRomanPSMT;writing-mode:lr-tb;fill:#000000;fill-opacity:1;fill-rule:nonzero;stroke:none"
         transform="matrix(0,1,1,0,295.71536,33.665383)"><tspan
           id="tspan70"
           y="0"
           x="0">1</tspan></text><text
         id="text76"
         style="font-variant:normal;font-weight:normal;font-size:10px;font-family:Helvetica;-inkscape-font-specification:Helvetica;writing-mode:lr-tb;fill:#000000;fill-opacity:1;fill-rule:nonzero;stroke:none"
         transform="matrix(1,0,0,-1,293.22204,1.592805)"><tspan
           id="tspan74"
           sodipodi:role="line"
           y="0"
           x="0 6.0999999 15.53">FWM</tspan></text><text
         id="text80"
         style="font-variant:normal;font-weight:normal;font-size:10px;font-family:'Times New Roman';-inkscape-font-specification:TimesNewRomanPSMT;writing-mode:lr-tb;fill:#000000;fill-opacity:1;fill-rule:nonzero;stroke:none"
         transform="matrix(0,1,1,0,323.28751,41.606551)"><tspan
           id="tspan78"
           y="0"
           x="0">ω</tspan></text><text
         id="text84"
         style="font-variant:normal;font-weight:normal;font-size:6.5px;font-family:'Times New Roman';-inkscape-font-specification:TimesNewRomanPSMT;writing-mode:lr-tb;fill:#000000;fill-opacity:1;fill-rule:nonzero;stroke:none"
         transform="matrix(0,1,1,0,325.28751,48.188583)"><tspan
           id="tspan82"
           y="0"
           x="0">4</tspan></text><text
         id="text88"
         style="font-variant:normal;font-weight:normal;font-size:10px;font-family:'Times New Roman';-inkscape-font-specification:TimesNewRomanPSMT;writing-mode:lr-tb;fill:#000000;fill-opacity:1;fill-rule:nonzero;stroke:none"
         transform="matrix(0,1,1,0,293.71535,68.036838)"><tspan
           id="tspan86"
           y="0"
           x="0">ω</tspan></text><text
         id="text92"
         style="font-variant:normal;font-weight:normal;font-size:6.5px;font-family:'Times New Roman';-inkscape-font-specification:TimesNewRomanPSMT;writing-mode:lr-tb;fill:#000000;fill-opacity:1;fill-rule:nonzero;stroke:none"
         transform="matrix(0,1,1,0,295.71535,74.618869)"><tspan
           id="tspan90"
           y="0"
           x="0">2</tspan></text><g
         transform="matrix(1,0,0,-1,0,104.3745)"
         id="g94"><path
           id="path96"
           style="fill:none;stroke:#000000;stroke-width:0.75;stroke-linecap:butt;stroke-linejoin:miter;stroke-miterlimit:4;stroke-dasharray:2.25, 2.25;stroke-dashoffset:2.7;stroke-opacity:1"
           d="m 290.238,48.781 h 15" /></g><text
         id="text100"
         style="font-variant:normal;font-weight:normal;font-size:10px;font-family:'Times New Roman';-inkscape-font-specification:TimesNewRomanPSMT;writing-mode:lr-tb;fill:#000000;fill-opacity:1;fill-rule:nonzero;stroke:none"
         transform="matrix(0,1,1,0,323.24942,83.021796)"><tspan
           id="tspan98"
           y="0"
           x="0">ω</tspan></text><text
         id="text104"
         style="font-variant:normal;font-weight:normal;font-size:6.5px;font-family:'Times New Roman';-inkscape-font-specification:TimesNewRomanPSMT;writing-mode:lr-tb;fill:#000000;fill-opacity:1;fill-rule:nonzero;stroke:none"
         transform="matrix(0,1,1,0,325.24942,89.603827)"><tspan
           id="tspan102"
           y="0"
           x="0">3</tspan></text><g
         transform="matrix(1,0,0,-1,0,104.3745)"
         id="g110"><path
           id="path112"
           style="fill:none;stroke:#a2142f;stroke-width:0.751181;stroke-linecap:butt;stroke-linejoin:miter;stroke-miterlimit:4;stroke-dasharray:none;stroke-opacity:1"
           d="M 26.305,88.438 V 62.188" /></g><g
         transform="matrix(0,-1,-1,0,0,104.3745)"
         id="g114"><path
           id="path116"
           style="fill:#a2142f;fill-opacity:1;fill-rule:evenodd;stroke:#a2142f;stroke-width:0.281693;stroke-linecap:butt;stroke-linejoin:round;stroke-miterlimit:4;stroke-dasharray:none;stroke-opacity:1"
           d="m 66.117,-24.484 -4.922,-1.813 4.922,-1.812 c -0.785,1.07 -0.781,2.535 0,3.625 z" /></g><g
         transform="matrix(1,0,0,-1,0,104.3745)"
         id="g118"><path
           id="path120"
           style="fill:none;stroke:#a2142f;stroke-width:0.7515;stroke-linecap:butt;stroke-linejoin:miter;stroke-miterlimit:4;stroke-dasharray:none;stroke-opacity:1"
           d="M 26.305,60.688 V 34.809" /></g><g
         transform="matrix(0,-1,-1,0,0,104.3745)"
         id="g122"><path
           id="path124"
           style="fill:#a2142f;fill-opacity:1;fill-rule:evenodd;stroke:#a2142f;stroke-width:0.281812;stroke-linecap:butt;stroke-linejoin:round;stroke-miterlimit:4;stroke-dasharray:none;stroke-opacity:1"
           d="m 38.738,-24.484 -4.925,-1.813 4.925,-1.812 c -0.785,1.07 -0.781,2.535 0,3.625 z" /></g><g
         transform="matrix(1,0,0,-1,0,104.3745)"
         id="g126"><path
           id="path128"
           style="fill:none;stroke:#a2142f;stroke-width:0.7515;stroke-linecap:butt;stroke-linejoin:miter;stroke-miterlimit:4;stroke-dasharray:none;stroke-opacity:1"
           d="M 26.305,33.313 V 7.434" /></g><g
         transform="matrix(0,-1,-1,0,0,104.3745)"
         id="g130"><path
           id="path132"
           style="fill:#a2142f;fill-opacity:1;fill-rule:evenodd;stroke:#a2142f;stroke-width:0.281812;stroke-linecap:butt;stroke-linejoin:round;stroke-miterlimit:4;stroke-dasharray:none;stroke-opacity:1"
           d="m 11.363,-24.484 -4.926,-1.813 4.926,-1.812 c -0.785,1.07 -0.781,2.535 0,3.625 z" /></g><g
         transform="matrix(1,0,0,-1,0,104.3745)"
         id="g134"><path
           id="path136"
           style="fill:none;stroke:#0072bd;stroke-width:0.751181;stroke-linecap:butt;stroke-linejoin:miter;stroke-miterlimit:4;stroke-dasharray:none;stroke-opacity:1"
           d="M 41.309,5.938 V 87.305" /></g><g
         transform="matrix(0,1,1,0,0,104.3745)"
         id="g138"><path
           id="path140"
           style="fill:#0072bd;fill-opacity:1;fill-rule:evenodd;stroke:#0072bd;stroke-width:0.281693;stroke-linecap:butt;stroke-linejoin:round;stroke-miterlimit:4;stroke-dasharray:none;stroke-opacity:1"
           d="m -83.375,43.125 -4.922,-1.813 4.922,-1.808 c -0.785,1.066 -0.781,2.531 0,3.621 z" /></g><g
         transform="matrix(1,0,0,-1,0,104.3745)"
         id="g142"><path
           id="path144"
           style="fill:none;stroke:#000000;stroke-width:0.75;stroke-linecap:butt;stroke-linejoin:miter;stroke-miterlimit:4;stroke-dasharray:none;stroke-opacity:1"
           d="M 18.809,88.438 H 48.805" /></g><g
         transform="matrix(1,0,0,-1,0,104.3745)"
         id="g146"><path
           id="path148"
           style="fill:none;stroke:#000000;stroke-width:0.75;stroke-linecap:butt;stroke-linejoin:miter;stroke-miterlimit:4;stroke-dasharray:2.25, 2.25;stroke-dashoffset:2.7;stroke-opacity:1"
           d="M 18.809,33.313 H 33.805" /></g><g
         transform="matrix(1,0,0,-1,0,104.3745)"
         id="g150"><path
           id="path152"
           style="fill:none;stroke:#000000;stroke-width:0.75;stroke-linecap:butt;stroke-linejoin:miter;stroke-miterlimit:4;stroke-dasharray:2.25, 2.25;stroke-dashoffset:0.825;stroke-opacity:1"
           d="M 18.809,5.938 H 48.805" /></g><text
         id="text156"
         style="font-variant:normal;font-weight:normal;font-size:10px;font-family:'Times New Roman';-inkscape-font-specification:TimesNewRomanPSMT;writing-mode:lr-tb;fill:#000000;fill-opacity:1;fill-rule:nonzero;stroke:none"
         transform="matrix(0,1,1,0,22.283344,26.339929)"><tspan
           id="tspan154"
           y="0"
           x="0">ω</tspan></text><text
         id="text160"
         style="font-variant:normal;font-weight:normal;font-size:10px;font-family:Helvetica;-inkscape-font-specification:Helvetica;writing-mode:lr-tb;fill:#000000;fill-opacity:1;fill-rule:nonzero;stroke:none"
         transform="matrix(1,0,0,-1,23.542976,1.685577)"><tspan
           id="tspan158"
           sodipodi:role="line"
           y="0"
           x="0 6.0999999 13.32">THG</tspan></text><text
         id="text164"
         style="font-variant:normal;font-weight:normal;font-size:10px;font-family:'Times New Roman';-inkscape-font-specification:TimesNewRomanPSMT;writing-mode:lr-tb;fill:#000000;fill-opacity:1;fill-rule:nonzero;stroke:none"
         transform="matrix(0,1,1,0,51.804512,51.37768)"><tspan
           style="font-style:normal;font-variant:normal;font-weight:normal;font-stretch:normal;font-family:arial;-inkscape-font-specification:arial"
           id="tspan162"
           y="0"
           x="0">3</tspan></text><text
         id="text170"
         style="font-variant:normal;font-weight:normal;font-size:10px;font-family:'Times New Roman';-inkscape-font-specification:TimesNewRomanPSMT;writing-mode:lr-tb;fill:#000000;fill-opacity:1;fill-rule:nonzero;stroke:none"
         transform="matrix(0,1,1,0,51.804512,56.37768)"><tspan
           id="tspan166"
           y="0"
           x="0">ω</tspan><tspan
           id="tspan168"
           y="-29.52117"
           x="24.902559">ω</tspan></text><g
         transform="matrix(1,0,0,-1,0,104.3745)"
         id="g172"><path
           id="path174"
           style="fill:none;stroke:#000000;stroke-width:0.75;stroke-linecap:butt;stroke-linejoin:miter;stroke-miterlimit:4;stroke-dasharray:2.25, 2.25;stroke-dashoffset:2.7;stroke-opacity:1"
           d="m 18.809,60.688 h 15" /></g><text
         id="text178"
         style="font-variant:normal;font-weight:normal;font-size:10px;font-family:'Times New Roman';-inkscape-font-specification:TimesNewRomanPSMT;writing-mode:lr-tb;fill:#000000;fill-opacity:1;fill-rule:nonzero;stroke:none"
         transform="matrix(0,1,1,0,22.283344,53.905271)"><tspan
           id="tspan176"
           y="0"
           x="0">ω</tspan></text><g
         transform="matrix(1,0,0,-1,0,104.3745)"
         id="g184"><path
           id="path186"
           style="fill:none;stroke:#edb120;stroke-width:0.751181;stroke-linecap:butt;stroke-linejoin:miter;stroke-miterlimit:4;stroke-dasharray:none;stroke-opacity:1"
           d="M 205.18,80.93 V 7.43" /></g><g
         transform="matrix(0,-1,-1,0,0,104.3745)"
         id="g188"><path
           id="path190"
           style="fill:#edb120;fill-opacity:1;fill-rule:evenodd;stroke:#edb120;stroke-width:0.281693;stroke-linecap:butt;stroke-linejoin:round;stroke-miterlimit:4;stroke-dasharray:none;stroke-opacity:1"
           d="m 11.359,-203.359 -4.925,-1.813 4.925,-1.808 c -0.789,1.066 -0.785,2.531 0,3.621 z" /></g><g
         transform="matrix(1,0,0,-1,0,104.3745)"
         id="g192"><path
           id="path194"
           style="fill:none;stroke:#a2142f;stroke-width:0.751181;stroke-linecap:butt;stroke-linejoin:miter;stroke-miterlimit:4;stroke-dasharray:none;stroke-opacity:1"
           d="M 190.18,19.813 V 79.805" /></g><g
         transform="matrix(0,1,1,0,0,104.3745)"
         id="g196"><path
           id="path198"
           style="fill:#a2142f;fill-opacity:1;fill-rule:evenodd;stroke:#a2142f;stroke-width:0.281693;stroke-linecap:butt;stroke-linejoin:round;stroke-miterlimit:4;stroke-dasharray:none;stroke-opacity:1"
           d="m -75.875,191.996 -4.922,-1.812 4.922,-1.809 c -0.785,1.07 -0.781,2.531 0,3.621 z" /></g><g
         transform="matrix(1,0,0,-1,0,104.3745)"
         id="g200"><path
           id="path202"
           style="fill:none;stroke:#000000;stroke-width:0.75;stroke-linecap:butt;stroke-linejoin:miter;stroke-miterlimit:4;stroke-dasharray:none;stroke-opacity:1"
           d="m 167.68,80.938 h 60" /></g><g
         transform="matrix(1,0,0,-1,0,104.3745)"
         id="g204"><path
           id="path206"
           style="fill:none;stroke:#0072bd;stroke-width:0.751181;stroke-linecap:butt;stroke-linejoin:miter;stroke-miterlimit:4;stroke-dasharray:none;stroke-opacity:1"
           d="M 220.18,5.938 V 87.305" /></g><g
         transform="matrix(0,1,1,0,0,104.3745)"
         id="g208"><path
           id="path210"
           style="fill:#0072bd;fill-opacity:1;fill-rule:evenodd;stroke:#0072bd;stroke-width:0.281693;stroke-linecap:butt;stroke-linejoin:round;stroke-miterlimit:4;stroke-dasharray:none;stroke-opacity:1"
           d="m -83.375,221.996 -4.922,-1.812 4.922,-1.809 c -0.785,1.07 -0.781,2.531 0,3.621 z" /></g><g
         transform="matrix(1,0,0,-1,0,104.3745)"
         id="g212"><path
           id="path214"
           style="fill:none;stroke:#edb120;stroke-width:0.751181;stroke-linecap:butt;stroke-linejoin:miter;stroke-miterlimit:4;stroke-dasharray:none;stroke-opacity:1"
           d="M 175.18,88.438 V 21.313" /></g><g
         transform="matrix(0,-1,-1,0,0,104.3745)"
         id="g216"><path
           id="path218"
           style="fill:#edb120;fill-opacity:1;fill-rule:evenodd;stroke:#edb120;stroke-width:0.281693;stroke-linecap:butt;stroke-linejoin:round;stroke-miterlimit:4;stroke-dasharray:none;stroke-opacity:1"
           d="m 25.242,-173.359 -4.922,-1.813 4.922,-1.808 c -0.785,1.066 -0.781,2.531 0,3.621 z" /></g><g
         transform="matrix(1,0,0,-1,0,104.3745)"
         id="g220"><path
           id="path222"
           style="fill:none;stroke:#000000;stroke-width:0.75;stroke-linecap:butt;stroke-linejoin:miter;stroke-miterlimit:4;stroke-dasharray:none;stroke-opacity:1"
           d="m 167.68,88.438 h 60" /></g><g
         transform="matrix(1,0,0,-1,0,104.3745)"
         id="g224"><path
           id="path226"
           style="fill:none;stroke:#000000;stroke-width:0.75;stroke-linecap:butt;stroke-linejoin:miter;stroke-miterlimit:4;stroke-dasharray:2.25, 2.25;stroke-dashoffset:0.825;stroke-opacity:1"
           d="m 197.68,5.938 h 30" /></g><text
         id="text230"
         style="font-variant:normal;font-weight:normal;font-size:10px;font-family:'Times New Roman';-inkscape-font-specification:TimesNewRomanPSMT;writing-mode:lr-tb;fill:#000000;fill-opacity:1;fill-rule:nonzero;stroke:none"
         transform="matrix(0,1,1,0,169.65468,39.295076)"><tspan
           id="tspan228"
           y="0"
           x="0">ω</tspan></text><text
         id="text234"
         style="font-variant:normal;font-weight:normal;font-size:6.5px;font-family:'Times New Roman';-inkscape-font-specification:TimesNewRomanPSMT;writing-mode:lr-tb;fill:#000000;fill-opacity:1;fill-rule:nonzero;stroke:none"
         transform="matrix(0,1,1,0,171.65468,45.877107)"><tspan
           style="font-style:normal;font-variant:normal;font-weight:normal;font-stretch:normal;font-family:arial;-inkscape-font-specification:arial"
           id="tspan232"
           sodipodi:role="line"
           y="0"
           x="0 3.25 6.5 11.5505">pump</tspan></text><text
         id="text238"
         style="font-variant:normal;font-weight:normal;font-size:10px;font-family:Helvetica;-inkscape-font-specification:Helvetica;writing-mode:lr-tb;fill:#000000;fill-opacity:1;fill-rule:nonzero;stroke:none"
         transform="matrix(1,0,0,-1,183.80591,1.685557)"><tspan
           id="tspan236"
           sodipodi:role="line"
           y="0"
           x="0 7.2199998 13.88 21.1">CARS</tspan></text><text
         id="text242"
         style="font-variant:normal;font-weight:normal;font-size:10px;font-family:'Times New Roman';-inkscape-font-specification:TimesNewRomanPSMT;writing-mode:lr-tb;fill:#000000;fill-opacity:1;fill-rule:nonzero;stroke:none"
         transform="matrix(0,1,1,0,212.67585,49.979315)"><tspan
           id="tspan240"
           y="0"
           x="0">ω</tspan></text><text
         id="text246"
         style="font-variant:normal;font-weight:normal;font-size:6.5px;font-family:'Times New Roman';-inkscape-font-specification:TimesNewRomanPSMT;writing-mode:lr-tb;fill:#000000;fill-opacity:1;fill-rule:nonzero;stroke:none"
         transform="matrix(0,1,1,0,214.67585,56.561346)"><tspan
           style="font-style:normal;font-variant:normal;font-weight:normal;font-stretch:normal;font-family:arial;-inkscape-font-specification:arial"
           id="tspan244"
           sodipodi:role="line"
           y="0"
           x="0 3.25 5.4145002 8.6645002 11.9145">probe</tspan></text><text
         id="text250"
         style="font-variant:normal;font-weight:normal;font-size:10px;font-family:'Times New Roman';-inkscape-font-specification:TimesNewRomanPSMT;writing-mode:lr-tb;fill:#000000;fill-opacity:1;fill-rule:nonzero;stroke:none"
         transform="matrix(0,1,1,0,228.55646,45.38843)"><tspan
           id="tspan248"
           y="0"
           x="0">ω</tspan></text><text
         id="text254"
         style="font-variant:normal;font-weight:normal;font-size:6.5px;font-family:'Times New Roman';-inkscape-font-specification:TimesNewRomanPSMT;writing-mode:lr-tb;fill:#000000;fill-opacity:1;fill-rule:nonzero;stroke:none"
         transform="matrix(0,1,1,0,230.55646,51.970462)"><tspan
           style="font-style:normal;font-variant:normal;font-weight:normal;font-stretch:normal;font-family:arial;-inkscape-font-specification:arial"
           id="tspan252"
           sodipodi:role="line"
           y="0"
           x="0 4.329 9.0220003 13.351">CARS</tspan></text><g
         transform="matrix(1,0,0,-1,0,104.3745)"
         id="g256"><path
           id="path258"
           style="fill:none;stroke:#000000;stroke-width:0.751181;stroke-linecap:butt;stroke-linejoin:miter;stroke-miterlimit:4;stroke-dasharray:2.25354, 2.25354;stroke-dashoffset:3.68079;stroke-opacity:1"
           d="m 166.18,19.801 h 30" /></g><text
         id="text262"
         style="font-variant:normal;font-weight:normal;font-size:10px;font-family:'Times New Roman';-inkscape-font-specification:TimesNewRomanPSMT;writing-mode:lr-tb;fill:#000000;fill-opacity:1;fill-rule:nonzero;stroke:none"
         transform="matrix(0,1,1,0,184.65468,41.972824)"><tspan
           id="tspan260"
           y="0"
           x="0">ω</tspan></text><text
         id="text266"
         style="font-variant:normal;font-weight:normal;font-size:6.5px;font-family:'Times New Roman';-inkscape-font-specification:TimesNewRomanPSMT;writing-mode:lr-tb;fill:#000000;fill-opacity:1;fill-rule:nonzero;stroke:none"
         transform="matrix(0,1,1,0,186.65468,48.554855)"><tspan
           style="font-style:normal;font-variant:normal;font-weight:normal;font-stretch:normal;font-family:arial;-inkscape-font-specification:arial"
           id="tspan264"
           sodipodi:role="line"
           y="0"
           x="0 3.6140001 5.4145002 8.6645002 11.9145 14.794">Stokes</tspan></text><g
         transform="matrix(1,0,0,-1,0,104.3745)"
         id="g268"><path
           id="path270"
           style="fill:none;stroke:#000000;stroke-width:0.75;stroke-linecap:butt;stroke-linejoin:miter;stroke-miterlimit:4;stroke-dasharray:none;stroke-opacity:1"
           d="m 233.68,80.93 h 3 -1.5 v 7.5 h -1.5 3" /></g><text
         id="text274"
         style="font-variant:normal;font-weight:normal;font-size:10px;font-family:'Times New Roman';-inkscape-font-specification:TimesNewRomanPSMT;writing-mode:lr-tb;fill:#000000;fill-opacity:1;fill-rule:nonzero;stroke:none"
         transform="matrix(1,0,0,-1,240.48154,16.267658)"><tspan
           id="tspan272"
           y="0"
           x="0">Ω</tspan></text><text
         id="text278"
         style="font-variant:normal;font-weight:normal;font-size:6.5px;font-family:'Times New Roman';-inkscape-font-specification:TimesNewRomanPSMT;writing-mode:lr-tb;fill:#000000;fill-opacity:1;fill-rule:nonzero;stroke:none"
         transform="matrix(1,0,0,-1,247.92295,14.267658)"><tspan
           id="tspan276"
           sodipodi:role="line"
           y="0"
           x="0 3.25 5.0504999">vib</tspan></text><text
         id="text286"
         style="font-variant:normal;font-weight:normal;font-size:10px;font-family:'Times New Roman';-inkscape-font-specification:TimesNewRomanPSMT;writing-mode:lr-tb;fill:#000000;fill-opacity:1;fill-rule:nonzero;stroke:none"
         transform="matrix(0,1,1,0,81.476183,38.545128)"><tspan
           id="tspan284"
           y="0"
           x="0">ω</tspan></text><text
         id="text290"
         style="font-variant:normal;font-weight:normal;font-size:6.5px;font-family:'Times New Roman';-inkscape-font-specification:TimesNewRomanPSMT;writing-mode:lr-tb;fill:#000000;fill-opacity:1;fill-rule:nonzero;stroke:none"
         transform="matrix(0,1,1,0,83.476183,45.127159)"><tspan
           style="font-style:normal;font-variant:normal;font-weight:normal;font-stretch:normal;font-family:Arial;-inkscape-font-specification:Arial"
           id="tspan288"
           sodipodi:role="line"
           y="0"
           x="0 3.25 6.5 11.5505">pump</tspan></text><text
         id="text294"
         style="font-variant:normal;font-weight:normal;font-size:10px;font-family:Helvetica;-inkscape-font-specification:Helvetica;writing-mode:lr-tb;fill:#000000;fill-opacity:1;fill-rule:nonzero;stroke:none"
         transform="matrix(1,0,0,-1,102.62177,1.685473)"><tspan
           id="tspan292"
           sodipodi:role="line"
           y="0"
           x="0 6.6599998">PP</tspan></text><text
         id="text298"
         style="font-variant:normal;font-weight:normal;font-size:10px;font-family:'Times New Roman';-inkscape-font-specification:TimesNewRomanPSMT;writing-mode:lr-tb;fill:#000000;fill-opacity:1;fill-rule:nonzero;stroke:none"
         transform="matrix(0,1,1,0,116.99735,46.229376)"><tspan
           id="tspan296"
           y="0"
           x="0">ω</tspan></text><text
         id="text302"
         style="font-variant:normal;font-weight:normal;font-size:6.5px;font-family:'Times New Roman';-inkscape-font-specification:TimesNewRomanPSMT;writing-mode:lr-tb;fill:#000000;fill-opacity:1;fill-rule:nonzero;stroke:none"
         transform="matrix(0,1,1,0,118.99735,52.811408)"><tspan
           style="font-style:normal;font-variant:normal;font-weight:normal;font-stretch:normal;font-family:arial;-inkscape-font-specification:arial"
           id="tspan300"
           sodipodi:role="line"
           y="0"
           x="0 3.25 5.4145002 8.6645002 11.9145">probe</tspan></text><g
         transform="matrix(1,0,0,-1,0,104.3745)"
         id="g304"><path
           id="path306"
           style="fill:none;stroke:#000000;stroke-width:0.75;stroke-linecap:butt;stroke-linejoin:miter;stroke-miterlimit:4;stroke-dasharray:none;stroke-opacity:1"
           d="m 98.512,77.941 h 22.5" /></g><g
         transform="matrix(1,0,0,-1,0,104.3745)"
         id="g308"><path
           id="path310"
           style="fill:#000000;fill-opacity:1;fill-rule:evenodd;stroke:#000000;stroke-width:0.4;stroke-linecap:butt;stroke-linejoin:miter;stroke-miterlimit:4;stroke-dasharray:none;stroke-opacity:1"
           d="m 101.512,77.941 1.5,-1.5 -5.25,1.5 5.25,1.5 z" /></g><g
         transform="matrix(-1,0,0,1,0,104.3745)"
         id="g312"><path
           id="path314"
           style="fill:#000000;fill-opacity:1;fill-rule:evenodd;stroke:#000000;stroke-width:0.4;stroke-linecap:butt;stroke-linejoin:miter;stroke-miterlimit:4;stroke-dasharray:none;stroke-opacity:1"
           d="m -118.012,-77.941 1.5,-1.5 -5.25,1.5 5.25,1.5 z" /></g><text
         id="text318"
         style="font-variant:normal;font-weight:normal;font-size:9px;font-family:'Times New Roman';-inkscape-font-specification:TimesNewRomanPSMT;writing-mode:lr-tb;fill:#000000;fill-opacity:1;fill-rule:nonzero;stroke:none"
         transform="matrix(1,0,0,-1,105.50366,28.620726)"><tspan
           id="tspan316"
           y="0"
           x="0">Δ</tspan></text><text
         id="text322"
         style="font-variant:normal;font-weight:normal;font-size:9px;font-family:'Times New Roman';-inkscape-font-specification:TimesNewRomanPSMT;writing-mode:lr-tb;fill:#000000;fill-opacity:1;fill-rule:nonzero;stroke:none"
         transform="matrix(1,0,0,-1,111.29066,28.620726)"><tspan
           id="tspan320"
           y="0"
           x="0">t</tspan></text><g
         transform="matrix(1,0,0,-1,0,104.3745)"
         id="g324"><path
           id="path326"
           style="fill:none;stroke:#edb120;stroke-width:0.751181;stroke-linecap:butt;stroke-linejoin:miter;stroke-miterlimit:4;stroke-dasharray:none;stroke-opacity:1"
           d="M 132,5.938 V 87.305" /></g><g
         transform="matrix(0,1,1,0,0,104.3745)"
         id="g328"><path
           id="path330"
           style="fill:#edb120;fill-opacity:1;fill-rule:evenodd;stroke:#edb120;stroke-width:0.281693;stroke-linecap:butt;stroke-linejoin:round;stroke-miterlimit:4;stroke-dasharray:none;stroke-opacity:1"
           d="m -83.375,133.816 -4.922,-1.808 4.922,-1.813 c -0.785,1.071 -0.781,2.532 0,3.621 z" /></g><g
         transform="matrix(1,0,0,-1,0,104.3745)"
         id="g332"><path
           id="path334"
           style="fill:none;stroke:#edb120;stroke-width:0.751181;stroke-linecap:butt;stroke-linejoin:miter;stroke-miterlimit:4;stroke-dasharray:none;stroke-opacity:1"
           d="m 124.5,88.43 v -81" /></g><g
         transform="matrix(0,-1,-1,0,0,104.3745)"
         id="g336"><path
           id="path338"
           style="fill:#edb120;fill-opacity:1;fill-rule:evenodd;stroke:#edb120;stroke-width:0.281693;stroke-linecap:butt;stroke-linejoin:round;stroke-miterlimit:4;stroke-dasharray:none;stroke-opacity:1"
           d="m 11.359,-122.68 -4.925,-1.812 4.925,-1.813 c -0.789,1.071 -0.785,2.535 0,3.625 z" /></g><g
         transform="matrix(1,0,0,-1,0,104.3745)"
         id="g340"><path
           id="path342"
           style="fill:none;stroke:#000000;stroke-width:0.75;stroke-linecap:butt;stroke-linejoin:miter;stroke-miterlimit:4;stroke-dasharray:none;stroke-opacity:1"
           d="m 109.5,5.938 h 30" /></g><g
         transform="matrix(1,0,0,-1,0,104.3745)"
         id="g344"><path
           id="path346"
           style="fill:none;stroke:#a2142f;stroke-width:0.751181;stroke-linecap:butt;stroke-linejoin:miter;stroke-miterlimit:4;stroke-dasharray:none;stroke-opacity:1"
           d="M 87,88.438 V 22.813" /></g><g
         transform="matrix(0,-1,-1,0,0,104.3745)"
         id="g348"><path
           id="path350"
           style="fill:#a2142f;fill-opacity:1;fill-rule:evenodd;stroke:#a2142f;stroke-width:0.281693;stroke-linecap:butt;stroke-linejoin:round;stroke-miterlimit:4;stroke-dasharray:none;stroke-opacity:1"
           d="m 26.742,-85.18 -4.922,-1.812 4.922,-1.813 c -0.785,1.071 -0.781,2.535 0,3.625 z" /></g><g
         transform="matrix(1,0,0,-1,0,104.3745)"
         id="g352"><path
           id="path354"
           style="fill:none;stroke:#a2142f;stroke-width:0.751181;stroke-linecap:butt;stroke-linejoin:miter;stroke-miterlimit:4;stroke-dasharray:none;stroke-opacity:1"
           d="M 94.5,21.313 V 86.852" /></g><g
         transform="matrix(1.29752e-6,1,1,-1.29752e-6,0,104.3745)"
         id="g356"><path
           id="path358"
           style="fill:#a2142f;fill-opacity:1;fill-rule:evenodd;stroke:#a2142f;stroke-width:0.281693;stroke-linecap:butt;stroke-linejoin:round;stroke-miterlimit:4;stroke-dasharray:none;stroke-opacity:1"
           d="m -82.922,96.317 -4.926,-1.809 4.926,-1.813 c -0.789,1.071 -0.785,2.532 0,3.622 z" /></g><g
         transform="matrix(1,0,0,-1,0,104.3745)"
         id="g360"><path
           id="path362"
           style="fill:none;stroke:#000000;stroke-width:0.751181;stroke-linecap:butt;stroke-linejoin:miter;stroke-miterlimit:4;stroke-dasharray:none;stroke-opacity:1"
           d="m 79.5,21.301 h 60" /></g><g
         transform="matrix(1,0,0,-1,0,104.3745)"
         id="g364"><path
           id="path366"
           style="fill:none;stroke:#000000;stroke-width:0.75;stroke-linecap:butt;stroke-linejoin:miter;stroke-miterlimit:4;stroke-dasharray:none;stroke-opacity:1"
           d="m 79.5,88.438 h 60" /></g></g></g></svg>
