<?xml version="1.0" encoding="UTF-8" standalone="no"?>
<svg
   xmlns:dc="http://purl.org/dc/elements/1.1/"
   xmlns:cc="http://creativecommons.org/ns#"
   xmlns:rdf="http://www.w3.org/1999/02/22-rdf-syntax-ns#"
   xmlns:svg="http://www.w3.org/2000/svg"
   xmlns="http://www.w3.org/2000/svg"
   xmlns:sodipodi="http://sodipodi.sourceforge.net/DTD/sodipodi-0.dtd"
   xmlns:inkscape="http://www.inkscape.org/namespaces/inkscape"
   inkscape:version="1.0 (4035a4f, 2020-05-01)"
   sodipodi:docname="theo_nlo_ml_index_of_refraction.pdf"
   viewBox="0 0 549.33331 349.33334"
   height="349.33334"
   width="549.33331"
   xml:space="preserve"
   id="svg10"
   version="1.1"><metadata
     id="metadata16"><rdf:RDF><cc:Work
         rdf:about=""><dc:format>image/svg+xml</dc:format><dc:type
           rdf:resource="http://purl.org/dc/dcmitype/StillImage" /><dc:title></dc:title></cc:Work></rdf:RDF></metadata><defs
     id="defs14" /><sodipodi:namedview
     inkscape:current-layer="g18"
     inkscape:window-maximized="0"
     inkscape:window-y="23"
     inkscape:window-x="0"
     inkscape:cy="174.66667"
     inkscape:cx="274.66666"
     inkscape:zoom="1.916869"
     showgrid="false"
     id="namedview12"
     inkscape:window-height="480"
     inkscape:window-width="823"
     inkscape:pageshadow="2"
     inkscape:pageopacity="0"
     guidetolerance="10"
     gridtolerance="10"
     objecttolerance="10"
     borderopacity="1"
     bordercolor="#666666"
     pagecolor="#ffffff" /><g
     transform="matrix(1.3333333,0,0,-1.3333333,0,349.33333)"
     inkscape:label="theo_nlo_ml_index_of_refraction"
     inkscape:groupmode="layer"
     id="g18"><text
       id="text60"
       style="font-variant:normal;font-weight:normal;font-size:10.008px;font-family:Arial;-inkscape-font-specification:Arial;writing-mode:lr-tb;fill:#231f20;fill-opacity:1;fill-rule:nonzero;stroke:none"
       transform="matrix(0.99280576,0,0,-1,66.12,23.38)"><tspan
         id="tspan20"
         sodipodi:role="line"
         y="0"
         x="0 5.5844641 11.168928">400</tspan><tspan
         id="tspan22"
         sodipodi:role="line"
         y="0.71957523"
         x="46.232956 51.817421 57.401886 92.465912 98.050377 103.63484 138.59079 144.17525 149.7597 184.85977 190.44423 196.0287 231.09273 236.67719 242.26166 277.21759 282.80206 288.38654 293.97098">5006007008009001000</tspan><tspan
         id="tspan24"
         sodipodi:role="line"
         y="-13.104475"
         x="-46.01078 -40.426315 -37.634083 -32.049618 -26.465155">1.505</tspan><tspan
         id="tspan26"
         sodipodi:role="line"
         y="-49.068222"
         x="-46.009777 -40.425316 -37.633083 -32.048618 -26.464155">1.510</tspan><tspan
         id="tspan28"
         sodipodi:role="line"
         y="-85.031975"
         x="-46.008778 -40.424313 -37.63208 -32.047619 -26.463154">1.515</tspan><tspan
         id="tspan30"
         sodipodi:role="line"
         y="-121.10381"
         x="-46.007778 -40.423313 -37.631081 -32.046616 -26.462152">1.520</tspan><tspan
         id="tspan32"
         sodipodi:role="line"
         y="-157.06755"
         x="-46.006775 -40.422314 -37.630081 -32.045616 -26.461151">1.525</tspan><tspan
         id="tspan34"
         sodipodi:role="line"
         y="-193.0313"
         x="-46.005775 -40.42131 -37.629078 -32.044617 -26.460152">1.530</tspan><tspan
         id="tspan36"
         sodipodi:role="line"
         y="-228.99506"
         x="-46.004776 -40.420311 -37.628078 -32.043613 -26.45915">1.535</tspan><tspan
         id="tspan38"
         sodipodi:role="line"
         y="21.168922"
         x="113.39864 122.86321 128.44768 130.69548 132.90724 138.4917 144.07617 146.28793 151.87241 157.45686 163.04134 168.58876 171.381 174.71666 180.30113 188.67783">Wellenlänge (nm)</tspan><tspan
         id="tspan40"
         sodipodi:role="line"
         y="-12.130697"
         x="313.8869 317.22256 322.80704">-14</tspan><tspan
         id="tspan42"
         sodipodi:role="line"
         y="-28.835051"
         x="313.8869 317.22256 322.80704">-12</tspan><tspan
         id="tspan44"
         sodipodi:role="line"
         y="-45.539402"
         x="313.8869 317.22256 322.80704">-10</tspan><tspan
         id="tspan46"
         sodipodi:role="line"
         y="-62.207726"
         x="319.43436 322.77002">-8</tspan><tspan
         id="tspan48"
         sodipodi:role="line"
         y="-78.767967"
         x="319.43436 322.77002">-6</tspan><tspan
         id="tspan50"
         sodipodi:role="line"
         y="-95.472321"
         x="319.43436 322.77002">-4</tspan><tspan
         id="tspan52"
         sodipodi:role="line"
         y="-112.17667"
         x="319.39731 322.73297">-2</tspan><tspan
         id="tspan54"
         sodipodi:role="line"
         y="-128.88103 -145.54935 -162.25369 -178.95805 -195.62637"
         x="322.80502 322.80502 322.80502 322.80502 322.80502">02468</tspan><tspan
         id="tspan56"
         sodipodi:role="line"
         y="-212.33073 -212.33073"
         x="317.22058 322.80502">10</tspan><tspan
         id="tspan58"
         sodipodi:role="line"
         y="-228.99905 -228.99905"
         x="317.22058 322.80502">12</tspan></text><path
       id="path62"
       style="fill:none;stroke:#231f20;stroke-width:1.001;stroke-linecap:square;stroke-linejoin:bevel;stroke-miterlimit:10;stroke-dasharray:none;stroke-opacity:1"
       d="m 51.54,36.376 v 2.232 m 23.076,-2.232 v 4.32 m 23.076,-4.32 v 2.232 m 23.076,-2.232 v 4.32 m 22.896,-4.32 v 2.232 m 23.076,-2.232 v 4.32 m 23.04,-4.32 v 2.232 m 23.076,-2.232 v 4.32 m 23.076,-4.32 v 2.232 m 23.076,-2.232 v 4.32 m 23.112,-4.32 v 2.232 m 22.86,-2.232 v 4.32 m 23.076,-4.32 v 2.232 m 23.076,-2.232 v 4.32 m 23.04,-4.32 v 2.232 M 51.54,36.376 h 322.632 m -322.632,0 h 4.644 m -4.644,18.54 h 2.412 M 51.54,73.492 h 4.644 M 51.54,92.068 h 2.412 m -2.412,18.576 h 4.644 m -4.644,18.54 h 2.412 M 51.54,147.76 h 4.644 m -4.644,18.576 h 2.412 m -2.412,18.54 h 4.644 m -4.644,18.576 h 2.412 m -2.412,18.576 h 4.644 m -4.644,18.576 h 2.412 m -2.412,18.54 h 4.644 M 51.54,36.376 v 222.768 m 0,0 h 322.632" /><path
       id="path64"
       style="fill:none;stroke:#231f20;stroke-width:1.5;stroke-linecap:round;stroke-linejoin:round;stroke-miterlimit:10;stroke-dasharray:none;stroke-opacity:1"
       d="m 74.616,227.248 1.836,-2.988 1.836,-3.204 1.764,-2.988 3.672,-5.976 1.836,-3.024 1.8,-2.988 1.836,-2.988 1.836,-3.024 1.8,-2.808 1.8,-2.988 3.672,-5.616 1.8,-2.844 1.836,-2.808 1.836,-2.628 1.836,-2.808 1.8,-2.592 1.836,-2.628 1.8,-2.448 1.8,-2.412 1.836,-2.484 1.836,-2.448 1.836,-2.232 1.8,-2.232 0.612,-0.756 1.8,-2.088 1.836,-2.232 1.836,-1.872 1.8,-2.052 1.836,-1.872 1.836,-1.908 1.836,-1.692 1.764,-1.656 3.672,-3.384 1.8,-1.476 3.672,-3.024 1.836,-1.476 1.8,-1.332 1.836,-1.512 1.8,-1.296 1.836,-1.152 1.8,-1.296 1.836,-1.332 1.836,-1.116 1.8,-1.116 1.836,-1.116 1.836,-1.152 1.836,-1.116 1.764,-0.936 1.836,-1.116 1.836,-0.936 1.836,-1.116 1.8,-0.936 0.576,-0.36 1.836,-0.972 1.836,-0.936 1.836,-1.116 1.8,-0.936 1.836,-0.972 1.836,-0.9 1.836,-0.936 1.8,-0.972 1.8,-0.72 1.836,-0.972 1.8,-0.9 1.836,-0.936 1.836,-0.792 1.836,-0.9 1.8,-0.756 1.836,-0.936 1.836,-0.756 1.764,-0.936 3.672,-1.512 1.836,-0.936 1.8,-0.756 1.836,-0.72 3.672,-1.512 1.764,-0.756 1.836,-0.72 1.836,-0.792 1.8,-0.72 3.672,-1.512 1.836,-0.576 1.8,-0.72 1.8,-0.792 1.836,-0.54 1.836,-0.756 1.8,-0.54 1.836,-0.792 1.836,-0.54 1.8,-0.72 1.836,-0.612 1.836,-0.54 1.8,-0.756 1.8,-0.54 1.836,-0.576 1.008,-0.396 1.836,-0.54 1.836,-0.576 1.836,-0.54 1.764,-0.576 1.836,-0.576 1.836,-0.54 1.8,-0.54 1.836,-0.612 1.836,-0.54 1.836,-0.576 1.8,-0.54 1.8,-0.396 1.836,-0.576 1.836,-0.54 1.8,-0.54 1.836,-0.396 1.836,-0.576 1.8,-0.36 1.836,-0.576 1.836,-0.54 1.8,-0.36 1.8,-0.612 1.836,-0.36 1.836,-0.54 1.8,-0.396 1.836,-0.36 1.836,-0.576 1.836,-0.396 1.764,-0.54 3.672,-0.72 1.836,-0.612 1.8,-0.36 1.836,-0.36 1.836,-0.576 1.8,-0.36 1.8,-0.396 1.836,-0.36 1.836,-0.576 1.8,-0.36 1.836,-0.36 1.836,-0.396 1.8,-0.396 1.836,-0.54 1.836,-0.396 3.6,-0.72 1.836,-0.36 1.836,-0.612 1.836,-0.36 1.008,-0.18" /><path
       id="path66"
       style="fill:none;stroke:#918f90;stroke-width:1.5;stroke-linecap:round;stroke-linejoin:round;stroke-miterlimit:10;stroke-dasharray:none;stroke-opacity:1"
       d="m 74.616,45.016 1.836,2.412 1.836,2.448 1.764,2.448 1.836,2.412 3.672,4.896 1.8,2.412 1.836,2.268 1.836,2.448 1.8,2.232 1.8,2.448 1.836,2.232 1.836,2.268 1.8,2.052 1.836,2.268 1.836,2.052 1.836,2.088 1.8,2.052 1.836,2.052 1.8,1.908 3.636,3.708 1.836,1.692 1.836,1.728 1.8,1.656 0.612,0.576 1.8,1.476 1.836,1.512 1.836,1.476 1.8,1.332 1.836,1.332 1.836,1.116 1.836,1.332 1.764,0.9 1.836,1.152 1.836,1.116 1.8,0.936 1.836,0.936 1.836,0.756 1.836,0.936 1.8,0.756 1.836,0.72 1.8,0.792 1.836,0.54 1.8,0.756 1.836,0.54 1.836,0.612 1.8,0.72 1.836,0.36 3.672,1.152 1.764,0.54 1.836,0.396 1.836,0.36 1.836,0.54 1.8,0.396 0.576,0.216 1.836,0.36 1.836,0.54 1.836,0.396 1.8,0.36 1.836,0.36 3.672,0.792 3.6,0.72 1.836,0.36 1.8,0.396 1.836,0.396 3.672,0.72 1.8,0.396 1.836,0.36 1.836,0.18 1.764,0.36 1.836,0.432 1.836,0.36 1.836,0.18 1.8,0.36 1.836,0.18 1.836,0.396 1.836,0.36 1.764,0.18 1.836,0.396 1.836,0.18 1.8,0.216 1.836,0.36 1.836,0.18 1.836,0.36 1.8,0.18 1.8,0.18 1.836,0.216 1.836,0.396 1.8,0.18 1.836,0.18 1.836,0.18 1.8,0.18 1.836,0.18 1.836,0.216 1.8,0.18 1.8,0.18 1.836,0.18 1.008,0.18 1.836,0.216 1.836,0.18 1.836,0.216 1.764,0.18 1.836,0.18 h 1.836 l 1.8,0.18 1.836,0.18 1.836,0.18 1.836,0.18 h 1.8 l 1.8,0.18 1.836,0.216 h 1.836 l 1.8,0.18 1.836,0.18 h 1.836 l 1.8,0.216 1.836,0.18 h 1.836 l 1.8,0.18 h 1.8 l 1.836,0.18 h 1.836 l 1.8,0.18 h 1.836 l 1.836,0.216 h 1.836 l 1.764,0.18 h 1.836 l 1.836,0.18 h 3.636 l 1.836,0.18 h 1.836 l 1.8,0.18 h 3.636 l 1.836,0.18 h 1.8 l 1.836,0.18 h 3.636 l 1.836,0.216 h 3.636 l 1.8,0.216 h 3.672 l 1.836,0.18 h 1.008" /><path
       id="path68"
       style="fill:none;stroke:#231f20;stroke-width:1.5;stroke-linecap:round;stroke-linejoin:round;stroke-miterlimit:10;stroke-dasharray:2.254, 3.005;stroke-dashoffset:0;stroke-opacity:1"
       d="m 74.616,250.504 1.836,-2.808 1.836,-2.592 1.764,-2.808 1.836,-2.844 1.836,-2.628 1.836,-2.808 1.8,-2.628 1.836,-2.628 1.836,-2.592 1.8,-2.628 1.8,-2.484 1.836,-2.628 1.836,-2.412 1.8,-2.448 1.836,-2.448 1.836,-2.232 1.836,-2.268 1.8,-2.232 1.836,-2.268 1.8,-2.052 1.8,-1.836 1.836,-2.088 1.836,-1.872 1.836,-1.692 1.8,-1.656 0.612,-0.612 1.8,-1.476 3.672,-3.024 1.8,-1.296 1.836,-1.152 1.836,-1.26 1.836,-0.972 1.764,-1.116 3.672,-1.872 1.8,-0.756 3.672,-1.512 1.836,-0.72 1.8,-0.576 1.836,-0.576 1.8,-0.54 1.836,-0.396 1.8,-0.54 1.836,-0.36 1.836,-0.432 1.8,-0.36 1.836,-0.36 1.836,-0.18 1.836,-0.36 1.764,-0.216 1.836,-0.36 1.836,-0.216 1.836,-0.18 1.8,-0.36 h 0.576 l 1.836,-0.18 1.836,-0.216 1.836,-0.36 1.8,-0.18 1.836,-0.18 1.836,-0.18 1.836,-0.18 1.8,-0.432 1.8,-0.18 1.836,-0.18 1.8,-0.18 1.836,-0.18 1.836,-0.18 1.836,-0.18 1.8,-0.396 1.836,-0.18 1.836,-0.18 1.764,-0.18 1.836,-0.216 1.836,-0.18 1.836,-0.18 1.8,-0.216 1.836,-0.18 1.836,-0.18 1.836,-0.18 1.764,-0.18 3.672,-0.36 1.8,-0.18 1.836,-0.216 1.836,-0.18 1.836,-0.216 h 1.8 l 1.8,-0.18 1.836,-0.18 1.836,-0.18 1.8,-0.18 1.836,-0.18 h 1.836 l 1.8,-0.216 1.836,-0.18 1.836,-0.18 h 1.8 l 1.8,-0.18 1.836,-0.18 h 1.008 l 1.836,-0.18 h 1.836 l 1.836,-0.216 h 1.764 l 1.836,-0.216 1.836,-0.18 h 1.8 l 1.836,-0.18 h 1.836 l 1.836,-0.18 h 3.6 l 1.836,-0.18 h 1.836 l 1.8,-0.18 h 3.672 l 1.8,-0.18 h 1.836 l 1.836,-0.18 h 5.436 l 1.836,-0.216 h 3.636 l 1.836,-0.18 h 5.436 l 1.836,-0.18 h 7.308 l 1.8,-0.18 h 9.108 l 1.836,-0.216 h 9.072 l 1.836,-0.18 h 4.68" /><path
       id="path70"
       style="fill:none;stroke:#918f90;stroke-width:1.5;stroke-linecap:round;stroke-linejoin:round;stroke-miterlimit:10;stroke-dasharray:2.254, 3.005;stroke-dashoffset:0;stroke-opacity:1"
       d="m 74.616,53.44 3.672,6.768 1.764,3.348 1.836,3.42 1.836,3.348 1.836,3.168 1.8,3.384 3.672,6.408 3.6,6.336 1.836,3.024 1.836,3.168 1.8,2.808 1.836,2.988 1.836,2.844 1.836,2.628 1.8,2.808 1.836,2.448 1.8,2.412 1.8,2.448 1.836,2.268 1.836,2.232 1.836,2.088 1.8,2.052 0.612,0.54 1.8,1.908 1.836,1.656 1.836,1.512 1.8,1.512 1.836,1.296 1.836,1.332 1.836,1.08 1.764,1.152 1.836,0.936 1.836,0.972 1.8,0.72 1.836,0.936 1.836,0.576 1.836,0.54 1.8,0.576 1.836,0.54 1.8,0.396 1.836,0.576 1.8,0.18 1.836,0.36 1.836,0.18 1.8,0.396 1.836,0.18 1.836,0.18 1.836,0.18 h 1.764 l 1.836,0.216 1.836,0.18 h 1.836 l 1.8,0.18 h 0.576 l 1.836,0.216 h 1.836 l 1.836,0.18 1.8,0.18 h 1.836 l 1.836,0.18 1.836,0.18 1.8,0.18 h 1.8 l 1.836,0.18 1.8,0.18 3.672,0.432 1.836,0.18 h 1.8 l 1.836,0.18 1.836,0.18 1.764,0.18 1.836,0.18 1.836,0.18 1.836,0.216 1.8,0.18 1.836,0.18 1.836,0.18 h 1.836 l 1.764,0.18 1.836,0.18 1.836,0.216 1.8,0.18 1.836,0.216 1.836,0.18 1.836,0.18 1.8,0.18 h 1.8 l 1.836,0.18 1.836,0.18 1.8,0.18 1.836,0.18 h 1.836 l 1.8,0.216 1.836,0.18 1.836,0.216 h 1.8 l 1.8,0.18 1.836,0.18 h 1.008 l 1.836,0.18 h 1.836 l 1.836,0.18 h 1.764 l 1.836,0.216 h 1.836 l 1.8,0.18 h 1.836 l 1.836,0.18 h 3.636 l 1.8,0.18 h 3.672 l 1.8,0.18 h 3.672 l 1.8,0.18 h 7.272 l 1.836,0.18 h 10.908 l 1.836,0.18 h 37.476" /><path
       id="path72"
       style="fill:none;stroke:#231f20;stroke-width:1.001;stroke-linecap:square;stroke-linejoin:bevel;stroke-miterlimit:10;stroke-dasharray:none;stroke-opacity:1"
       d="m 374.172,36.376 h -4.644 m 4.644,8.64 h -2.412 m 2.412,8.424 h -4.644 m 4.644,8.604 h -2.412 m 2.412,8.64 h -4.644 m 4.644,8.46 h -2.412 m 2.412,8.604 h -4.644 m 4.644,8.64 h -2.412 m 2.412,8.64 h -4.644 m 4.644,8.424 h -2.412 m 2.412,8.604 h -4.644 m 4.644,8.64 h -2.412 m 2.412,8.424 h -4.644 m 4.644,8.64 h -2.412 m 2.412,8.64 h -4.644 m 4.644,8.424 h -2.412 m 2.412,8.64 h -4.644 m 4.644,8.64 h -2.412 m 2.412,8.388 h -4.644 m 4.644,8.64 h -2.412 m 2.412,8.64 h -4.644 m 4.644,8.604 h -2.412 m 2.412,8.46 h -4.644 m 4.644,8.64 h -2.412 m 2.412,8.604 h -4.644 m 4.644,8.424 h -2.412 m 2.412,8.64 h -4.644 m 4.644,-222.768 v 222.768" /><text
       id="text80"
       style="font-variant:normal;font-weight:normal;font-size:10.008px;font-family:Arial;-inkscape-font-specification:Arial;writing-mode:lr-tb;fill:#231f20;fill-opacity:1;fill-rule:nonzero;stroke:none"
       transform="matrix(0.99280576,0,0,-1,89.736,172.204)"><tspan
         id="tspan74"
         y="0"
         x="0">n</tspan><tspan
         id="tspan76"
         sodipodi:role="line"
         y="95.508347"
         x="24.476566 30.061029">dn</tspan><tspan
         id="tspan78"
         y="106.88444"
         x="24.476566">d</tspan></text><text
       id="text84"
       style="font-variant:normal;font-weight:normal;font-size:10.008px;font-family:Symbol;-inkscape-font-specification:Symbol;writing-mode:lr-tb;fill:#231f20;fill-opacity:1;fill-rule:nonzero;stroke:none"
       transform="matrix(1,0,0,-1,119.58,65.356)"><tspan
         id="tspan82"
         y="0"
         x="0">l</tspan></text><path
       id="path86"
       style="fill:none;stroke:#231f20;stroke-width:0.7;stroke-linecap:square;stroke-linejoin:bevel;stroke-miterlimit:10;stroke-dasharray:none;stroke-opacity:1"
       d="m 112.92,74.788 h 13.86" /><text
       id="text90"
       style="font-variant:normal;font-weight:normal;font-size:10.008px;font-family:Arial;-inkscape-font-specification:Arial;writing-mode:lr-tb;fill:#231f20;fill-opacity:1;fill-rule:nonzero;stroke:none"
       transform="matrix(0.99280576,0,0,-1,119.724,212.776)"><tspan
         id="tspan88"
         y="0"
         x="0">d</tspan></text><text
       id="text94"
       style="font-variant:normal;font-weight:normal;font-size:5.832px;font-family:Arial;-inkscape-font-specification:Arial;writing-mode:lr-tb;fill:#231f20;fill-opacity:1;fill-rule:nonzero;stroke:none"
       transform="matrix(0.98765432,0,0,-1,125.268,215.764)"><tspan
         id="tspan92"
         sodipodi:role="line"
         y="0"
         x="0 3.2804999">2 </tspan></text><text
       id="text100"
       style="font-variant:normal;font-weight:normal;font-size:10.008px;font-family:Arial;-inkscape-font-specification:Arial;writing-mode:lr-tb;fill:#231f20;fill-opacity:1;fill-rule:nonzero;stroke:none"
       transform="matrix(0.99280576,0,0,-1,131.28,212.776)"><tspan
         id="tspan96"
         y="0"
         x="0">n</tspan><tspan
         id="tspan98"
         sodipodi:role="line"
         y="11.376094"
         x="-11.639304 -6.0548401">d </tspan></text><text
       id="text104"
       style="font-variant:normal;font-weight:normal;font-size:10.008px;font-family:Symbol;-inkscape-font-specification:Symbol;writing-mode:lr-tb;fill:#231f20;fill-opacity:1;fill-rule:nonzero;stroke:none"
       transform="matrix(1,0,0,-1,128.04,201.436)"><tspan
         id="tspan102"
         y="0"
         x="0">l</tspan></text><text
       id="text108"
       style="font-variant:normal;font-weight:normal;font-size:5.832px;font-family:Arial;-inkscape-font-specification:Arial;writing-mode:lr-tb;fill:#231f20;fill-opacity:1;fill-rule:nonzero;stroke:none"
       transform="matrix(0.98765432,0,0,-1,133.512,204.388)"><tspan
         id="tspan106"
         y="0"
         x="0">2</tspan></text><path
       id="path110"
       style="fill:none;stroke:#231f20;stroke-width:0.7;stroke-linecap:square;stroke-linejoin:bevel;stroke-miterlimit:10;stroke-dasharray:none;stroke-opacity:1"
       d="m 118.608,210.76 h 20.124" /><text
       id="text114"
       style="font-variant:normal;font-weight:normal;font-size:10.008px;font-family:Arial;-inkscape-font-specification:Arial;writing-mode:lr-tb;fill:#231f20;fill-opacity:1;fill-rule:nonzero;stroke:none"
       transform="matrix(0.99280576,0,0,-1,80.592,119.284)"><tspan
         id="tspan112"
         y="0"
         x="0">d</tspan></text><text
       id="text118"
       style="font-variant:normal;font-weight:normal;font-size:5.832px;font-family:Arial;-inkscape-font-specification:Arial;writing-mode:lr-tb;fill:#231f20;fill-opacity:1;fill-rule:nonzero;stroke:none"
       transform="matrix(0.98765432,0,0,-1,86.136,122.272)"><tspan
         id="tspan116"
         sodipodi:role="line"
         y="0"
         x="0 3.2804999">3 </tspan></text><text
       id="text124"
       style="font-variant:normal;font-weight:normal;font-size:10.008px;font-family:Arial;-inkscape-font-specification:Arial;writing-mode:lr-tb;fill:#231f20;fill-opacity:1;fill-rule:nonzero;stroke:none"
       transform="matrix(0.99280576,0,0,-1,92.148,119.284)"><tspan
         id="tspan120"
         y="0"
         x="0">n</tspan><tspan
         id="tspan122"
         sodipodi:role="line"
         y="11.376094"
         x="-11.639304 -6.0548401">d </tspan></text><text
       id="text128"
       style="font-variant:normal;font-weight:normal;font-size:10.008px;font-family:Symbol;-inkscape-font-specification:Symbol;writing-mode:lr-tb;fill:#231f20;fill-opacity:1;fill-rule:nonzero;stroke:none"
       transform="matrix(1,0,0,-1,88.908,107.908)"><tspan
         id="tspan126"
         y="0"
         x="0">l</tspan></text><text
       id="text132"
       style="font-variant:normal;font-weight:normal;font-size:5.832px;font-family:Arial;-inkscape-font-specification:Arial;writing-mode:lr-tb;fill:#231f20;fill-opacity:1;fill-rule:nonzero;stroke:none"
       transform="matrix(0.98765432,0,0,-1,94.38,110.896)"><tspan
         id="tspan130"
         y="0"
         x="0">3</tspan></text><path
       id="path134"
       style="fill:none;stroke:#231f20;stroke-width:0.7;stroke-linecap:square;stroke-linejoin:bevel;stroke-miterlimit:10;stroke-dasharray:none;stroke-opacity:1"
       d="M 79.476,117.232 H 99.6" /><text
       id="text138"
       style="font-variant:normal;font-weight:normal;font-size:10.008px;font-family:Arial;-inkscape-font-specification:Arial;writing-mode:lr-tb;fill:#231f20;fill-opacity:1;fill-rule:nonzero;stroke:none"
       transform="matrix(0,0.99280576,1,0,9.024,108.412)"><tspan
         id="tspan136"
         sodipodi:role="line"
         y="0"
         x="0 6.7083626 10.044029 15.628492 20.632492 26.216957 31.80142 37.385883 42.933319 47.973347 50.185116 55.769581 61.354046 66.938507 71.942505 74.734741">Brechungsindex n</tspan></text><text
       id="text142"
       style="font-variant:normal;font-weight:normal;font-size:10.008px;font-family:Arial;-inkscape-font-specification:Arial;writing-mode:lr-tb;fill:#231f20;fill-opacity:1;fill-rule:nonzero;stroke:none"
       transform="matrix(0,-0.99280576,-1,0,402.432,235.456)"><tspan
         id="tspan140"
         sodipodi:role="line"
         y="0"
         x="0 6.7083626 12.292827 14.504595 20.089058 22.300827 25.093058 30.677523 36.261986 41.846451 47.393887 52.978348 55.77058 59.106247 64.690712">Ableitungen (10</tspan></text><text
       id="text146"
       style="font-variant:normal;font-weight:normal;font-size:5.832px;font-family:Arial;-inkscape-font-specification:Arial;writing-mode:lr-tb;fill:#231f20;fill-opacity:1;fill-rule:nonzero;stroke:none"
       transform="matrix(0,-0.98765432,-1,0,405.384,165.688)"><tspan
         id="tspan144"
         sodipodi:role="line"
         y="0"
         x="0 1.9683 5.2120585">-2 </tspan></text><text
       id="text150"
       style="font-variant:normal;font-weight:normal;font-size:10.008px;font-family:Arial;-inkscape-font-specification:Arial;writing-mode:lr-tb;fill:#231f20;fill-opacity:1;fill-rule:nonzero;stroke:none"
       transform="matrix(0,-0.99280576,-1,0,402.432,157.768)"><tspan
         id="tspan148"
         sodipodi:role="line"
         y="0"
         x="0 5.7656088">µm</tspan></text><text
       id="text154"
       style="font-variant:normal;font-weight:normal;font-size:5.832px;font-family:Arial;-inkscape-font-specification:Arial;writing-mode:lr-tb;fill:#231f20;fill-opacity:1;fill-rule:nonzero;stroke:none"
       transform="matrix(0,-0.98765432,-1,0,405.384,143.728)"><tspan
         id="tspan152"
         sodipodi:role="line"
         y="0"
         x="0 1.9683">-1</tspan></text><text
       id="text158"
       style="font-variant:normal;font-weight:normal;font-size:10.008px;font-family:Arial;-inkscape-font-specification:Arial;writing-mode:lr-tb;fill:#231f20;fill-opacity:1;fill-rule:nonzero;stroke:none"
       transform="matrix(0,-0.99280576,-1,0,402.432,138.58)"><tspan
         id="tspan156"
         sodipodi:role="line"
         y="0"
         x="0 2.792232 5.5844641 11.168928">, 10</tspan></text><text
       id="text162"
       style="font-variant:normal;font-weight:normal;font-size:5.832px;font-family:Arial;-inkscape-font-specification:Arial;writing-mode:lr-tb;fill:#231f20;fill-opacity:1;fill-rule:nonzero;stroke:none"
       transform="matrix(0,-0.98765432,-1,0,405.384,121.948)"><tspan
         id="tspan160"
         sodipodi:role="line"
         y="0"
         x="0 1.9683 5.2120585">-1 </tspan></text><text
       id="text166"
       style="font-variant:normal;font-weight:normal;font-size:10.008px;font-family:Arial;-inkscape-font-specification:Arial;writing-mode:lr-tb;fill:#231f20;fill-opacity:1;fill-rule:nonzero;stroke:none"
       transform="matrix(0,-0.99280576,-1,0,402.432,114.028)"><tspan
         id="tspan164"
         sodipodi:role="line"
         y="0"
         x="0 5.7656088">µm</tspan></text><text
       id="text170"
       style="font-variant:normal;font-weight:normal;font-size:5.832px;font-family:Arial;-inkscape-font-specification:Arial;writing-mode:lr-tb;fill:#231f20;fill-opacity:1;fill-rule:nonzero;stroke:none"
       transform="matrix(0,-0.98765432,-1,0,405.384,99.988)"><tspan
         id="tspan168"
         sodipodi:role="line"
         y="0"
         x="0 1.9683">-2</tspan></text><text
       id="text174"
       style="font-variant:normal;font-weight:normal;font-size:10.008px;font-family:Arial;-inkscape-font-specification:Arial;writing-mode:lr-tb;fill:#231f20;fill-opacity:1;fill-rule:nonzero;stroke:none"
       transform="matrix(0,-0.99280576,-1,0,402.432,94.804)"><tspan
         id="tspan172"
         sodipodi:role="line"
         y="0"
         x="0 2.792232">, </tspan></text><text
       id="text178"
       style="font-variant:normal;font-weight:normal;font-size:10.008px;font-family:Arial;-inkscape-font-specification:Arial;writing-mode:lr-tb;fill:#231f20;fill-opacity:1;fill-rule:nonzero;stroke:none"
       transform="matrix(0,-0.99280576,-1,0,402.432,86.524)"><tspan
         id="tspan176"
         sodipodi:role="line"
         y="0"
         x="0 5.7656088">µm</tspan></text><text
       id="text182"
       style="font-variant:normal;font-weight:normal;font-size:5.832px;font-family:Arial;-inkscape-font-specification:Arial;writing-mode:lr-tb;fill:#231f20;fill-opacity:1;fill-rule:nonzero;stroke:none"
       transform="matrix(0,-0.98765432,-1,0,405.384,72.484)"><tspan
         id="tspan180"
         sodipodi:role="line"
         y="0"
         x="0 1.9683">-3</tspan></text><text
       id="text186"
       style="font-variant:normal;font-weight:normal;font-size:10.008px;font-family:Arial;-inkscape-font-specification:Arial;writing-mode:lr-tb;fill:#231f20;fill-opacity:1;fill-rule:nonzero;stroke:none"
       transform="matrix(0,-0.99280576,-1,0,402.432,67.3)"><tspan
         id="tspan184"
         y="0"
         x="0">)</tspan></text></g></svg>
